<?xml version="1.0" standalone="no"?>
<!DOCTYPE svg PUBLIC "-//W3C//DTD SVG 20010904//EN"
 "http://www.w3.org/TR/2001/REC-SVG-20010904/DTD/svg10.dtd">
<svg version="1.0" xmlns="http://www.w3.org/2000/svg"
 width="100.000000pt" height="100.000000pt" viewBox="0 0 100.000000 100.000000"
 preserveAspectRatio="xMidYMid meet">
<metadata>
Created by potrace 1.16, written by Peter Selinger 2001-2019
</metadata>
<g transform="translate(0.000000,100.000000) scale(0.006250,-0.006250)"
fill="#000000" stroke="none">
<path d="M8392 7682 c-65 -24 -90 -45 -114 -101 -15 -32 -18 -54 -13 -86 12
-84 54 -114 228 -164 112 -32 151 -51 167 -82 17 -30 11 -85 -11 -112 -21 -28
-100 -57 -154 -57 -49 0 -147 29 -187 55 l-37 25 -11 -21 c-17 -30 -8 -42 56
-74 55 -28 66 -30 174 -30 108 0 118 2 163 28 101 60 115 186 29 259 -31 26
-53 35 -213 82 -104 31 -139 60 -139 116 0 45 30 87 76 106 53 22 160 17 227
-10 l58 -24 10 25 c5 13 9 26 9 27 0 2 -24 14 -52 26 -74 32 -195 37 -266 12z"/>
<path d="M4860 7360 l0 -330 30 0 30 0 0 105 0 105 123 0 122 0 73 -105 c69
-99 75 -105 108 -105 19 0 34 2 34 5 0 3 -35 53 -77 112 -70 97 -75 108 -59
117 87 51 115 88 127 165 12 79 -7 139 -60 191 -63 62 -97 70 -290 70 l-161 0
0 -330z m312 269 c108 -23 162 -122 123 -224 -30 -81 -89 -105 -254 -105
l-116 0 2 167 c1 93 2 169 2 171 2 7 198 0 243 -9z"/>
<path d="M5545 7677 c-3 -7 -4 -154 -3 -327 l3 -315 233 -3 232 -2 0 30 0 30
-200 0 -200 0 0 125 0 125 176 0 175 0 -3 28 -3 27 -172 3 -173 2 0 120 0 120
195 0 195 0 0 25 0 25 -225 0 c-172 0 -227 -3 -230 -13z"/>
<path d="M6366 7662 c-21 -40 -286 -622 -286 -628 0 -2 15 -4 33 -4 32 0 35 3
74 90 l42 90 186 -2 186 -3 38 -85 c36 -83 38 -85 74 -88 l36 -3 -14 33 c-7
18 -74 166 -148 328 l-135 295 -35 3 c-31 3 -38 -1 -51 -26z m128 -217 c42
-93 76 -173 76 -177 0 -4 -70 -8 -155 -8 -106 0 -155 3 -155 11 0 6 25 68 56
138 31 69 65 146 75 170 11 24 21 42 23 40 3 -2 38 -80 80 -174z"/>
<path d="M6865 7677 c-3 -7 -4 -154 -3 -327 l3 -315 223 -3 222 -2 0 30 0 30
-190 0 -190 0 0 300 0 300 -30 0 c-17 0 -33 -6 -35 -13z"/>
<path d="M7670 7360 l0 -330 235 0 235 0 0 30 0 30 -200 0 -200 0 0 125 0 125
170 0 170 0 0 30 0 30 -170 0 -170 0 0 120 0 120 195 0 195 0 0 25 0 25 -230
0 -230 0 0 -330z"/>
<path d="M8790 7665 l0 -25 115 0 115 0 0 -305 0 -305 35 0 35 0 0 305 0 305
120 0 120 0 0 25 0 25 -270 0 -270 0 0 -25z"/>
<path d="M9598 7603 c-86 -186 -258 -565 -258 -569 0 -2 15 -4 34 -4 33 0 34
2 72 90 l39 90 188 -2 188 -3 38 -85 c37 -82 40 -85 75 -88 l36 -3 -12 28 c-7
15 -74 163 -150 328 l-137 300 -36 3 -36 3 -41 -88z m156 -157 c42 -93 76
-173 76 -178 0 -4 -70 -8 -155 -8 -120 0 -155 3 -155 13 0 7 27 73 61 147 33
74 67 150 75 169 8 19 16 32 18 30 2 -2 38 -80 80 -173z"/>
<path d="M10020 7665 l0 -25 115 0 115 0 0 -305 0 -305 35 0 35 0 0 305 0 305
115 0 115 0 0 25 0 25 -265 0 -265 0 0 -25z"/>
<path d="M10670 7360 l0 -330 235 0 235 0 0 30 0 30 -200 0 -200 0 0 125 0
125 170 0 170 0 0 30 0 30 -170 0 -170 0 0 120 0 120 190 0 190 0 0 25 0 25
-225 0 -225 0 0 -330z"/>
</g>
</svg>
