<?xml version="1.0" standalone="no"?>
<!DOCTYPE svg PUBLIC "-//W3C//DTD SVG 20010904//EN"
 "http://www.w3.org/TR/2001/REC-SVG-20010904/DTD/svg10.dtd">
<svg version="1.0" xmlns="http://www.w3.org/2000/svg"
 width="190.951" height="100.73" viewBox="0 0 2000.000000 2000.000000"
 preserveAspectRatio="xMidYMid meet">
<metadata>
Created by potrace 1.16, written by Peter Selinger 2001-2019
</metadata>
<g transform="translate(0.000000,2000.000000) scale(0.100000,-0.100000)"
fill="#000000" stroke="none">
<path d="M8570 13736 l-555 -224 -3 -177 c-2 -171 -2 -176 17 -170 11 3 264
104 563 224 l543 219 3 71 c2 48 7 71 15 71 7 0 224 -90 482 -201 259 -111
478 -203 488 -206 15 -5 17 4 17 94 l0 99 -490 212 c-270 116 -498 212 -508
212 -9 -1 -267 -101 -572 -224z"/>
<path d="M8655 13131 l-490 -198 -5 -461 -5 -462 -82 58 -82 57 -1 63 0 62
-342 0 -343 0 95 -93 c107 -103 150 -145 605 -577 349 -332 437 -416 625 -595
69 -66 168 -160 220 -210 53 -49 140 -133 195 -185 55 -52 150 -142 210 -199
61 -58 157 -150 215 -205 58 -56 270 -258 473 -450 l367 -350 0 -113 0 -113
915 0 915 0 0 108 0 107 -158 158 -159 159 76 71 c42 40 180 167 306 282 126
116 264 242 305 280 41 39 152 140 245 226 94 85 284 261 424 390 140 129 285
261 322 294 37 33 68 63 68 68 1 4 -89 7 -199 7 l-200 0 0 -47 1 -48 -123
-117 c-68 -64 -126 -114 -130 -111 -5 2 -8 114 -8 249 l0 244 -150 0 -150 0 0
-85 0 -85 -163 0 -162 0 -140 -137 c-77 -75 -285 -280 -462 -455 l-321 -318
-791 0 -791 0 0 640 c0 352 -3 640 -7 640 -4 0 -53 -44 -108 -99 l-100 -99
-162 -6 c-98 -4 -163 -3 -163 2 0 5 284 292 631 637 l632 628 126 -129 c136
-138 522 -539 821 -851 l185 -193 750 0 750 0 -55 53 c-30 28 -154 142 -274
252 -121 110 -288 263 -371 340 -210 195 -589 542 -645 590 l-46 40 -624 28
-623 28 -513 -512 -513 -513 -161 159 -160 159 -2 567 -3 567 -490 -197z"/>
<path d="M6999 11537 c-156 -143 -466 -427 -689 -631 -223 -203 -535 -490
-695 -636 -159 -147 -460 -422 -669 -613 l-378 -347 -680 -2 -680 -3 -1 -72
-2 -73 748 -2 748 -3 258 235 c141 129 412 377 601 550 190 173 372 340 405
370 78 73 242 224 605 555 162 148 320 292 350 321 30 28 123 113 205 188
l150 137 3 -130 3 -130 187 -173 c103 -95 250 -231 327 -303 77 -71 277 -256
445 -410 168 -154 399 -368 515 -475 116 -107 264 -244 330 -305 66 -60 138
-127 160 -147 l40 -38 303 0 c166 0 302 3 301 8 0 6 -225 213 -752 692 -39 36
-209 191 -377 345 -168 154 -514 472 -770 706 -256 234 -519 475 -586 536
l-120 111 -285 -261z"/>
<path d="M10110 11450 l0 -160 175 0 175 0 0 160 0 160 -175 0 -175 0 0 -160z"/>
<path d="M10590 11450 l0 -160 175 0 175 0 0 160 0 160 -175 0 -175 0 0 -160z"/>
<path d="M10110 11010 l0 -160 175 0 175 0 0 160 0 160 -175 0 -175 0 0 -160z"/>
<path d="M10590 11010 l0 -160 175 0 175 0 0 160 0 160 -175 0 -175 0 0 -160z"/>
<path d="M13499 10946 c-35 -33 -161 -153 -279 -266 -118 -113 -262 -250 -320
-305 -224 -214 -309 -295 -420 -401 -63 -60 -154 -147 -203 -194 l-87 -84 62
-63 c34 -35 65 -63 69 -63 3 0 62 53 130 118 68 66 351 336 629 600 l505 482
5 -98 5 -98 125 -114 c69 -63 145 -133 170 -156 25 -22 122 -111 215 -196 94
-85 253 -231 355 -324 101 -93 256 -234 344 -314 88 -80 201 -182 250 -227
l91 -83 825 0 825 0 -2 72 -1 73 -680 3 -680 2 -344 313 c-307 279 -470 426
-1142 1036 -100 90 -226 205 -282 256 l-100 93 -65 -62z"/>
<path d="M6824 10217 c-2 -7 -3 -102 -2 -212 l3 -200 233 -3 232 -2 0 215 0
215 -230 0 c-178 0 -232 -3 -236 -13z"/>
<path d="M7454 10217 c-2 -7 -3 -102 -2 -212 l3 -200 233 -3 232 -2 -2 212 -3
213 -228 2 c-174 2 -229 -1 -233 -10z"/>
<path d="M12990 9728 l0 -143 160 3 160 3 0 139 0 140 -160 0 -160 0 0 -142z"/>
<path d="M13420 9730 l0 -140 160 0 160 0 0 140 0 140 -160 0 -160 0 0 -140z"/>
<path d="M6820 9430 l0 -210 235 0 235 0 0 210 0 210 -235 0 -235 0 0 -210z"/>
<path d="M7450 9430 l0 -210 235 0 235 0 0 210 0 210 -235 0 -235 0 0 -210z"/>
<path d="M12990 9330 l0 -140 160 0 160 0 0 140 0 140 -160 0 -160 0 0 -140z"/>
<path d="M13420 9330 l0 -140 160 0 160 0 0 140 0 140 -160 0 -160 0 0 -140z"/>
<path d="M10815 8669 c-261 -39 -417 -221 -385 -451 12 -82 32 -129 76 -178
73 -81 181 -131 390 -181 319 -76 402 -138 392 -293 -6 -95 -43 -151 -132
-196 -63 -32 -77 -35 -175 -38 -175 -6 -316 41 -451 151 -34 27 -62 47 -64 45
-1 -1 -23 -28 -49 -59 l-47 -56 28 -25 c51 -48 166 -118 241 -147 112 -43 182
-55 316 -55 138 -1 231 22 319 78 160 102 224 307 152 480 -24 58 -63 102
-129 145 -80 52 -162 82 -342 126 -284 70 -364 130 -365 275 0 129 110 225
271 237 137 10 267 -25 388 -106 34 -22 65 -41 69 -41 4 0 27 28 50 60 l44 60
-24 20 c-49 41 -216 118 -289 133 -97 21 -210 27 -284 16z"/>
<path d="M6611 8652 c-5 -10 -138 -319 -294 -687 -157 -369 -294 -691 -306
-717 l-20 -48 163 0 163 0 213 523 c117 287 216 529 220 537 10 18 12 13 119
-250 l80 -195 -132 -3 -132 -3 -57 -139 -57 -140 245 0 245 0 21 -47 c12 -27
42 -100 68 -163 l46 -115 167 -3 c92 -1 167 -1 167 2 0 2 -40 98 -89 212 -49
115 -173 407 -276 649 -103 242 -203 477 -222 522 l-35 81 -143 1 c-130 2
-145 0 -154 -17z"/>
<path d="M13441 8633 c-10 -21 -114 -249 -231 -508 -117 -258 -257 -568 -311
-688 -55 -120 -99 -223 -99 -228 0 -6 33 -9 81 -7 l81 3 281 628 c154 345 283
627 286 627 6 0 309 -677 318 -710 5 -19 0 -20 -262 -22 l-268 -3 -27 -67 -28
-68 331 -2 331 -3 85 -192 85 -193 87 0 88 0 -14 33 c-12 30 -168 375 -508
1125 l-142 312 -72 0 -73 0 -19 -37z"/>
<path d="M3230 7927 l0 -728 158 3 157 3 3 584 2 583 198 -4 c187 -3 200 -5
253 -29 84 -40 104 -74 104 -180 0 -78 -2 -89 -28 -122 -52 -68 -92 -81 -258
-85 l-147 -4 -6 -45 c-3 -25 -6 -88 -6 -139 l0 -94 68 0 68 0 154 -231 c85
-127 160 -233 165 -235 6 -3 91 -3 188 -2 l178 3 -170 247 c-93 135 -172 251
-175 257 -4 6 14 21 41 35 160 81 243 203 259 380 22 243 -102 433 -331 507
-29 9 -157 14 -458 18 l-417 6 0 -728z"/>
<path d="M7913 8652 l-153 -3 0 -724 0 -725 520 0 520 0 0 145 0 145 -360 0
-360 0 0 579 c0 319 -3 581 -7 583 -5 2 -77 2 -160 0z"/>
<path d="M12217 8652 l-568 -2 3 -73 3 -72 243 -3 242 -2 0 -650 0 -650 85 0
85 0 0 650 0 650 241 2 241 3 0 73 c0 40 -1 74 -3 75 -2 1 -260 1 -572 -1z"/>
<path d="M14833 8652 l-563 -2 0 -75 0 -75 240 0 240 0 0 -650 0 -650 85 0 85
0 0 650 0 650 243 2 242 3 3 69 c2 38 -1 72 -5 75 -4 3 -261 5 -570 3z"/>
<path d="M15716 8652 c-3 -3 -6 -331 -6 -729 l0 -723 530 0 530 0 0 75 0 75
-445 0 -445 0 0 255 0 255 395 0 395 0 0 75 0 75 -395 0 -395 0 0 250 0 250
440 0 440 0 0 70 0 70 -502 1 c-277 0 -511 2 -520 4 -9 2 -19 0 -22 -3z"/>
<path d="M4730 7925 l0 -725 550 0 550 0 0 145 0 145 -395 0 -395 0 0 150 0
150 345 0 346 0 -3 143 -3 142 -342 3 -343 2 0 145 0 145 390 0 390 0 0 140 0
140 -545 0 -545 0 0 -725z"/>
<path d="M9070 7925 l0 -725 530 0 530 0 0 75 0 75 -445 0 -445 0 0 255 0 255
395 0 395 0 0 75 0 75 -395 0 -395 0 0 250 0 250 440 0 440 0 0 70 0 70 -525
0 -525 0 0 -725z"/>
<path d="M5342 6719 c-105 -18 -193 -83 -239 -177 -25 -51 -28 -67 -28 -162 0
-86 4 -113 21 -151 54 -116 155 -180 294 -187 100 -5 173 17 235 71 37 32 37
32 17 51 -20 18 -22 17 -55 -8 -76 -58 -192 -72 -291 -35 -133 49 -201 215
-150 366 58 170 272 235 428 131 37 -24 49 -27 66 -18 28 15 25 23 -16 55 -74
56 -183 81 -282 64z"/>
<path d="M6009 6717 c-161 -46 -246 -173 -237 -355 7 -147 69 -243 192 -298
75 -34 181 -38 265 -9 77 25 161 109 191 190 47 127 23 284 -60 377 -74 85
-234 128 -351 95z m187 -62 c60 -18 127 -72 157 -129 18 -34 22 -57 22 -141 0
-113 -14 -153 -73 -213 -78 -77 -216 -101 -314 -53 -172 83 -214 336 -78 472
73 73 177 97 286 64z"/>
<path d="M7424 6717 c-90 -23 -149 -79 -159 -151 -9 -55 12 -105 56 -138 41
-30 73 -41 202 -68 153 -31 196 -61 197 -136 0 -80 -75 -128 -199 -128 -80 0
-142 26 -193 78 -34 35 -38 37 -63 24 l-26 -14 30 -41 c92 -127 388 -144 480
-27 28 35 43 96 36 138 -17 91 -82 133 -253 166 -116 23 -149 34 -179 62 -32
30 -31 87 3 127 65 77 254 80 329 5 31 -30 37 -33 60 -22 14 6 25 14 25 18 0
15 -78 80 -114 95 -53 22 -169 28 -232 12z"/>
<path d="M10080 6719 c-110 -22 -190 -85 -239 -189 -22 -47 -26 -69 -26 -150
0 -83 3 -102 27 -151 58 -117 153 -179 289 -187 56 -3 91 0 130 13 54 18 139
69 139 84 0 4 -9 16 -20 26 -20 18 -21 18 -43 -2 -40 -38 -91 -56 -164 -61
-127 -8 -219 41 -270 146 -24 49 -28 68 -27 137 1 95 16 136 74 199 54 59 113
81 210 80 78 0 112 -12 176 -60 31 -23 32 -23 49 -4 17 19 17 21 1 39 -28 31
-108 69 -170 80 -67 12 -73 12 -136 0z"/>
<path d="M11594 6719 c-107 -25 -197 -113 -230 -227 -21 -73 -15 -199 14 -264
110 -248 484 -260 606 -19 66 130 49 305 -39 409 -75 90 -218 130 -351 101z
m185 -65 c61 -18 123 -70 153 -128 26 -50 36 -177 19 -239 -20 -69 -72 -131
-138 -163 -75 -37 -175 -39 -246 -5 -105 51 -164 162 -155 290 14 192 178 302
367 245z"/>
<path d="M14449 6720 c-61 -11 -125 -44 -172 -89 -136 -129 -134 -381 3 -505
71 -64 120 -81 235 -81 89 0 106 3 156 27 30 15 65 38 77 51 22 23 22 24 3 41
-19 17 -21 17 -63 -12 -63 -43 -110 -55 -192 -50 -112 8 -191 60 -235 158 -23
50 -28 159 -11 222 47 168 290 243 434 133 41 -31 43 -32 64 -14 12 9 22 19
22 21 0 11 -93 70 -128 82 -54 19 -137 26 -193 16z"/>
<path d="M6580 6387 c0 -184 2 -336 5 -339 3 -2 18 -3 35 0 l30 4 2 259 3 258
210 -259 c126 -155 217 -259 228 -259 16 -1 17 21 17 334 l0 335 -30 0 -30 0
-2 -266 -3 -267 -215 266 c-132 164 -222 267 -232 267 -17 0 -18 -22 -18 -333z"/>
<path d="M7860 6690 l0 -30 120 0 120 0 0 -305 0 -305 30 0 30 0 0 305 0 305
120 0 120 0 0 30 0 30 -270 0 -270 0 0 -30z"/>
<path d="M8510 6386 l0 -336 35 0 35 0 0 125 0 125 83 0 82 0 113 -124 c103
-114 116 -124 152 -128 22 -2 40 -1 40 3 0 3 -49 60 -109 125 l-110 119 35 7
c70 15 132 64 153 121 15 40 14 132 -3 170 -17 40 -57 81 -99 104 -27 15 -64
19 -219 21 l-188 4 0 -336z m375 254 c54 -26 79 -70 78 -138 -2 -61 -20 -94
-66 -122 -28 -17 -51 -20 -174 -20 l-143 0 0 150 0 150 132 0 c111 0 138 -3
173 -20z"/>
<path d="M9170 6505 c0 -241 8 -295 53 -362 103 -153 351 -134 440 32 21 37
22 56 25 293 l3 252 -30 0 -30 0 -3 -242 c-3 -232 -4 -245 -26 -283 -75 -132
-274 -129 -342 5 -18 36 -20 59 -20 280 l0 240 -35 0 -35 0 0 -215z"/>
<path d="M10480 6690 l0 -30 120 0 120 0 0 -305 0 -305 30 0 30 0 0 305 0 305
120 0 120 0 0 30 0 30 -270 0 -270 0 0 -30z"/>
<path d="M11130 6385 l0 -335 30 0 30 0 0 335 0 335 -30 0 -30 0 0 -335z"/>
<path d="M12160 6385 l0 -335 35 0 35 0 2 260 3 260 185 -227 c222 -273 250
-304 261 -297 5 3 9 155 9 340 l0 334 -30 0 -30 0 -2 -265 -3 -265 -215 265
c-131 162 -222 265 -232 265 -17 0 -18 -23 -18 -335z"/>
<path d="M13112 6388 l3 -333 218 -3 217 -2 0 30 0 30 -185 0 -185 0 0 305 0
305 -35 0 -36 0 3 -332z"/>
<path d="M13660 6385 l0 -335 221 0 220 0 -3 28 -3 27 -182 3 -183 2 0 305 0
305 -35 0 -35 0 0 -335z"/>
</g>
</svg>
