<?xml version="1.0" standalone="no"?>
<!DOCTYPE svg PUBLIC "-//W3C//DTD SVG 20010904//EN"
 "http://www.w3.org/TR/2001/REC-SVG-20010904/DTD/svg10.dtd">
<svg version="1.0" xmlns="http://www.w3.org/2000/svg"
 width="190.000000pt" height="70.000000pt" viewBox="0 0 190.000000 100.000000"
 preserveAspectRatio="xMidYMid meet">
<metadata>
Created by potrace 1.16, written by Peter Selinger 2001-2019
</metadata>
<g transform="translate(0.000000,100.000000) scale(0.007422,-0.003906)"
fill="#000000" stroke="none">
<path d="M0 12800 l0 -12800 12800 0 12800 0 0 12800 0 12800 -12800 0 -12800
0 0 -12800z m13473 7677 c-4 -6 -1 -7 7 -2 7 4 15 4 19 -1 3 -5 19 -17 34 -27
15 -10 25 -22 22 -27 -3 -6 0 -7 8 -5 7 3 42 -16 78 -43 35 -26 85 -63 112
-81 26 -18 45 -36 42 -42 -3 -5 0 -6 8 -4 7 3 23 -2 35 -12 25 -21 101 -75
308 -222 82 -58 223 -158 312 -221 l162 -115 0 -801 c0 -440 3 -804 7 -807 3
-4 17 2 29 14 18 16 26 19 42 10 16 -8 23 -7 33 7 12 15 12 15 -1 5 -9 -7 -21
-8 -29 -4 -10 7 -8 12 10 25 31 21 38 20 74 -10 17 -15 23 -23 15 -18 -9 4
-12 3 -7 -2 5 -5 16 -9 25 -9 11 0 16 -7 14 -20 -2 -13 0 -16 6 -8 6 10 17 6
45 -13 21 -14 35 -29 32 -34 -3 -6 1 -7 9 -4 9 3 16 1 16 -5 0 -7 8 -15 18
-18 36 -14 91 -56 85 -66 -3 -6 -1 -7 6 -3 12 8 78 -41 74 -55 -2 -5 3 -6 10
-3 7 2 22 -4 32 -13 11 -10 33 -26 48 -36 15 -10 25 -23 21 -29 -4 -7 -3 -8 4
-4 11 7 124 -69 412 -276 l115 -83 3 -809 c2 -889 -3 -825 61 -775 39 31 196
143 276 196 39 26 73 51 76 56 4 5 12 6 18 3 6 -4 10 -3 9 2 -2 6 32 35 75 66
77 56 94 65 82 46 -3 -6 1 -7 10 -3 12 4 13 8 5 13 -8 5 10 23 51 51 35 24 83
58 107 76 44 34 72 44 56 21 -5 -7 -7 -101 -4 -208 4 -161 6 -183 13 -125 4
39 7 130 8 203 1 97 4 130 12 125 13 -7 327 -243 540 -405 74 -57 196 -150
271 -206 l136 -104 0 -1264 c0 -695 3 -1264 6 -1264 3 0 76 53 162 118 420
318 533 402 540 401 4 0 41 -25 82 -55 41 -30 90 -64 108 -75 28 -18 31 -24
20 -38 -12 -14 -11 -14 4 -3 15 12 20 12 32 0 8 -7 38 -29 66 -48 28 -19 101
-71 163 -115 62 -44 129 -91 149 -105 l38 -25 0 -527 c0 -291 3 -528 7 -528 4
0 103 33 219 72 l212 72 58 -49 c33 -27 61 -52 64 -55 3 -3 177 -156 388 -340
211 -183 630 -549 930 -812 l547 -478 3 205 2 205 270 0 270 0 0 -445 0 -444
278 -244 c152 -135 354 -313 449 -396 l171 -151 1027 0 1026 0 -3 -43 -3 -42
-1307 -3 -1308 -2 -282 247 c-584 513 -1127 990 -1243 1093 -66 58 -253 223
-415 365 -162 143 -358 316 -436 385 -378 337 -474 420 -483 420 -5 0 -105
-84 -223 -187 -368 -323 -533 -468 -538 -473 -3 -4 -84 -75 -180 -160 -191
-167 -245 -215 -455 -402 -77 -68 -349 -308 -605 -533 -256 -225 -554 -487
-663 -583 l-198 -175 -1210 5 c-715 3 -1209 9 -1208 14 3 18 354 364 366 359
7 -2 10 1 7 8 -2 7 354 370 791 807 l796 795 -43 39 c-24 21 -272 240 -553
486 -280 246 -612 537 -736 646 -124 110 -333 294 -464 409 -131 116 -322 284
-425 375 -102 91 -258 228 -345 305 -88 77 -182 161 -211 188 -28 26 -57 47
-63 47 -7 0 -119 -93 -249 -207 -129 -115 -258 -228 -286 -252 -28 -24 -67
-57 -86 -75 -19 -18 -150 -133 -290 -256 -140 -123 -374 -330 -520 -459 -345
-305 -351 -311 -720 -635 -173 -153 -316 -281 -318 -285 -1 -5 444 -457 990
-1006 546 -548 992 -1002 990 -1008 -2 -7 0 -9 4 -4 10 9 85 -63 78 -75 -3 -5
-1 -7 5 -6 10 3 211 -190 211 -202 0 -10 -2847 -13 -2851 -3 -2 4 -40 39 -84
78 -44 38 -118 104 -165 146 -47 41 -240 212 -430 379 -190 167 -376 331 -415
365 -149 133 -675 596 -934 823 -102 89 -204 180 -226 200 -40 38 -194 173
-570 501 -110 96 -204 179 -210 185 -23 25 -283 246 -290 246 -4 0 -46 -35
-93 -78 -48 -43 -188 -168 -312 -277 -124 -109 -241 -212 -260 -229 -45 -40
-616 -543 -949 -836 -141 -123 -382 -335 -536 -470 -154 -136 -484 -425 -733
-643 l-454 -397 -1394 0 -1394 0 0 45 0 45 1056 0 1055 0 197 173 c108 94 222
195 252 222 31 28 125 111 210 185 84 74 163 144 176 155 12 11 65 58 118 104
l96 84 0 519 0 518 320 0 320 0 0 -236 0 -235 29 23 c16 13 190 165 387 338
196 173 473 416 613 539 581 508 1007 878 1052 916 l48 40 0 686 1 686 120 84
c67 46 141 99 166 118 38 29 47 32 55 20 8 -12 9 -11 7 2 -4 19 57 73 72 64 6
-4 9 -2 8 3 -3 10 143 122 160 122 5 0 13 7 16 16 4 9 13 14 21 10 8 -3 14 0
12 6 -1 6 4 13 11 15 7 3 12 1 11 -4 -1 -4 0 -413 1 -908 l3 -900 8 903 c4
497 9 906 12 908 3 3 150 -104 327 -238 373 -282 359 -272 365 -266 3 2 6 571
7 1263 l3 1259 51 40 c28 23 173 133 323 246 150 113 291 220 314 239 23 19
55 39 70 46 16 6 28 15 27 19 -3 15 179 146 194 140 9 -3 13 -11 9 -17 -3 -6
-1 -7 5 -3 6 4 31 -7 54 -24 24 -17 77 -55 118 -85 41 -30 91 -66 110 -80 19
-14 101 -72 181 -128 80 -56 168 -118 195 -137 27 -19 70 -50 96 -68 l48 -33
0 734 c0 404 3 769 7 811 l6 77 101 72 c56 40 112 80 126 89 52 36 266 188
278 198 7 6 17 8 22 5 6 -4 9 -2 8 4 -2 6 9 19 24 28 35 23 245 174 326 235
40 29 69 45 79 41 10 -4 14 -2 10 5 -4 6 6 20 21 31 26 18 31 19 51 5 12 -9
18 -20 15 -26 -4 -7 -2 -8 4 -4 9 5 231 -151 262 -184 7 -8 308 -235 390 -295
134 -98 425 -319 452 -344 26 -23 41 -23 44 0 1 5 2 321 3 703 l1 694 143 108
c78 59 170 130 204 156 74 57 298 226 478 362 72 54 144 109 160 122 17 13 44
34 61 46 17 13 56 42 85 65 30 23 90 69 134 102 44 33 85 64 90 69 13 12 57
-16 48 -31z m-121 -7168 c68 -59 132 -115 144 -125 12 -11 50 -44 85 -74 214
-186 569 -496 719 -629 495 -438 808 -716 830 -737 38 -37 18 -28 -44 19 -30
23 -75 56 -98 73 -393 289 -801 592 -1228 912 -289 217 -530 396 -536 399 -6
2 -78 -46 -160 -108 -399 -301 -1016 -762 -1344 -1003 -201 -148 -383 -282
-405 -299 -92 -68 76 84 799 723 66 58 145 128 175 155 57 51 559 489 794 693
72 62 134 111 138 110 4 -2 63 -51 131 -109z m-204 -1146 l2 -173 -175 0 -175
0 0 175 0 175 173 -2 172 -3 3 -172z m466 171 c14 -5 16 -30 16 -175 l0 -169
-175 0 -175 0 0 175 0 175 159 0 c88 0 166 -3 175 -6z m-466 -650 l2 -172 -61
-7 c-34 -4 -113 -4 -175 0 l-114 7 0 168 c0 125 3 170 13 174 6 2 84 4 172 3
l160 -2 3 -171z m466 170 c14 -5 16 -30 16 -174 l0 -168 -124 -7 c-68 -4 -146
-4 -175 0 l-51 7 0 174 0 174 159 0 c88 0 166 -3 175 -6z m-6649 -109 c259
-223 1081 -945 1819 -1599 166 -147 356 -319 356 -322 0 -2 -78 53 -172 123
-379 277 -724 534 -1462 1086 -396 297 -645 477 -655 474 -9 -2 -306 -222
-661 -488 -355 -266 -825 -616 -1045 -778 -220 -162 -436 -322 -480 -354 -110
-82 -114 -84 -80 -51 77 75 988 880 1625 1437 245 214 490 429 545 477 80 70
103 85 114 76 8 -6 51 -42 96 -81z m12474 -342 c31 -27 70 -60 86 -74 775
-676 1089 -953 1545 -1359 180 -160 294 -266 235 -218 -11 9 -69 51 -130 95
-204 145 -952 701 -1471 1093 -164 124 -304 229 -311 233 -14 9 -20 5 -664
-479 -323 -242 -500 -374 -974 -724 -274 -203 -325 -240 -325 -236 0 9 1045
932 1745 1541 33 29 92 80 130 113 39 34 72 62 74 62 2 0 29 -21 60 -47z
m-12661 -1035 l-3 -203 -140 -3 c-77 -2 -168 0 -202 3 l-63 7 0 192 c0 106 3
196 7 199 3 4 96 7 205 7 l198 0 -2 -202z m562 3 l0 -198 -52 -7 c-29 -3 -119
-6 -200 -6 l-148 0 0 205 0 205 200 0 200 0 0 -199z m11968 -177 l2 -171 -62
-6 c-35 -3 -114 -3 -175 0 l-113 6 0 168 0 168 33 4 c17 2 95 4 172 3 l140 -1
3 -171z m436 170 l46 -7 0 -167 0 -167 -116 -6 c-64 -4 -143 -4 -175 0 l-59 6
0 173 0 174 129 0 c70 0 149 -3 175 -6z m-12966 -561 l2 -203 -205 0 -205 0 0
198 c0 109 3 202 7 206 4 3 95 5 202 4 l196 -3 3 -202z m562 2 l0 -205 -200 0
-200 0 0 205 0 205 200 0 200 0 0 -205z m11965 -95 l0 -175 -110 -3 c-60 -2
-138 0 -172 3 l-63 7 0 168 c0 152 2 169 18 173 9 3 87 4 172 3 l155 -1 0
-175z m454 174 l31 -6 0 -168 0 -168 -72 -7 c-40 -3 -118 -5 -173 -3 l-100 3
-3 178 -2 177 144 0 c79 0 158 -3 175 -6z m-1764 -1838 c28 -7 74 -23 103 -35
71 -28 98 -27 119 6 l18 27 7 -40 c4 -21 7 -109 7 -194 1 -128 -1 -152 -12
-140 -7 8 -21 42 -31 75 -24 79 -68 165 -108 211 -82 94 -240 111 -328 37 -51
-43 -74 -98 -74 -178 0 -128 48 -180 275 -296 265 -135 352 -238 353 -414 2
-184 -91 -320 -262 -386 -45 -17 -79 -22 -157 -22 -89 0 -112 4 -208 37 -126
42 -150 44 -171 14 -9 -12 -19 -19 -23 -15 -9 10 -17 328 -9 361 10 41 23 31
41 -31 26 -90 80 -195 128 -249 183 -203 485 -83 465 184 -10 128 -79 223
-211 291 -223 114 -295 167 -342 252 -27 49 -30 62 -30 149 0 82 4 103 27 152
29 62 92 137 143 168 73 45 191 60 280 36z m-15500 -26 c-3 -5 -21 -10 -38
-10 -48 0 -107 -39 -131 -85 -19 -36 -22 -66 -30 -295 -11 -320 3 -676 28
-735 22 -50 60 -91 111 -118 31 -16 65 -21 145 -25 245 -10 369 78 426 302 9
36 20 66 25 66 11 0 12 -134 2 -283 l-6 -107 -566 1 c-483 0 -559 2 -518 13
59 16 96 42 122 87 19 33 20 55 23 513 2 316 -1 496 -8 531 -16 75 -82 135
-149 135 -17 0 -31 5 -31 10 0 6 107 10 301 10 197 0 298 -3 294 -10z m1190 0
c-3 -5 -18 -10 -33 -10 -40 0 -103 -40 -126 -80 -17 -29 -21 -60 -27 -195 -10
-222 -10 -505 0 -663 8 -120 12 -140 40 -195 78 -155 267 -208 480 -133 129
45 199 112 221 211 16 71 16 864 0 928 -18 71 -86 127 -155 127 -14 0 -25 5
-25 10 0 6 78 10 215 10 137 0 215 -4 215 -10 0 -5 -14 -10 -30 -10 -67 0
-134 -52 -155 -120 -4 -14 -11 -230 -14 -480 -7 -518 -5 -506 -93 -587 -96
-88 -221 -127 -408 -127 -248 0 -405 73 -472 219 -23 49 -23 55 -25 465 -1
228 -5 438 -8 467 -10 87 -67 150 -144 160 -23 3 -44 10 -47 14 -3 5 129 9
296 9 198 0 299 -3 295 -10z m1490 0 c-11 -5 -32 -9 -47 -9 -68 -2 -105 -44
-94 -106 7 -33 231 -384 247 -385 9 0 214 260 249 317 57 91 38 159 -49 170
-102 14 -35 23 166 23 144 0 213 -4 203 -10 -8 -5 -29 -10 -46 -10 -61 0 -113
-49 -299 -279 -213 -263 -200 -245 -193 -262 13 -31 371 -548 414 -598 66 -75
117 -109 175 -117 119 -16 25 -24 -276 -24 -179 0 -325 2 -325 4 0 2 24 9 52
16 69 14 108 51 108 100 0 30 -22 70 -116 216 -139 215 -166 254 -170 254 -2
0 -68 -80 -145 -177 -143 -178 -178 -235 -179 -285 0 -60 30 -92 110 -114 39
-11 15 -12 -190 -12 -232 0 -234 0 -185 16 35 12 71 37 118 81 69 66 447 511
447 528 0 5 -39 65 -86 133 -47 69 -133 196 -191 282 -58 87 -117 169 -132
184 -33 34 -80 54 -125 54 -19 0 -38 5 -41 10 -4 7 101 10 307 9 184 0 305 -4
293 -9z m1431 1 c-3 -4 -24 -11 -47 -14 -56 -7 -89 -33 -119 -93 l-25 -49 -3
-360 c-5 -514 6 -600 93 -703 90 -107 325 -121 496 -30 96 50 139 102 159 193
13 59 14 853 1 909 -17 73 -71 124 -140 133 -102 14 -36 23 163 23 137 0 216
-4 216 -10 0 -5 -11 -10 -24 -10 -59 0 -117 -40 -145 -100 -13 -30 -17 -101
-21 -490 -6 -506 -6 -506 -76 -580 -91 -96 -229 -142 -424 -142 -251 -1 -401
67 -469 211 l-26 56 -5 460 c-4 403 -7 464 -22 490 -31 57 -88 95 -143 95 -13
0 -27 5 -30 10 -4 7 97 10 295 10 167 0 299 -4 296 -9z m1687 -14 c121 -35
191 -87 234 -175 24 -48 28 -69 27 -137 0 -159 -77 -244 -279 -310 -18 -6 -17
-8 10 -22 57 -29 77 -59 180 -263 135 -268 173 -325 228 -350 l42 -19 -153 0
-153 -1 -31 68 c-94 206 -201 414 -240 468 -55 74 -100 98 -182 99 l-60 0 3
-227 c1 -124 6 -243 11 -262 16 -74 57 -111 143 -132 45 -11 13 -12 -253 -12
-261 0 -298 1 -255 12 69 17 100 40 127 94 l23 47 0 490 c0 478 -1 491 -21
536 -26 56 -72 90 -130 97 -24 2 -44 9 -44 14 0 6 131 8 358 5 292 -3 368 -7
415 -20z m1033 14 c-3 -4 -27 -11 -53 -14 -91 -10 -117 -79 -65 -172 23 -40
182 -300 258 -422 8 -13 18 -23 23 -23 8 0 209 313 259 403 15 28 22 57 22 95
0 48 -4 58 -34 88 -24 24 -43 34 -64 34 -17 0 -34 5 -37 10 -4 7 68 10 210 10
142 0 214 -3 210 -10 -3 -5 -16 -10 -28 -10 -66 -1 -127 -70 -332 -376 l-180
-269 0 -245 c0 -235 1 -247 23 -287 27 -51 56 -72 125 -89 45 -11 12 -12 -253
-12 -263 0 -298 2 -254 13 69 17 99 39 126 93 21 44 23 59 23 248 l0 201 -36
69 c-63 118 -386 591 -424 620 -21 16 -53 28 -80 32 -25 2 -45 9 -45 13 0 5
138 9 306 9 170 0 303 -4 300 -9z m2065 -18 c172 -51 253 -148 253 -303 0 -91
-25 -155 -85 -216 -36 -37 -99 -69 -193 -98 -15 -5 -9 -12 30 -39 46 -30 55
-45 171 -270 67 -131 134 -254 148 -273 15 -20 46 -44 69 -54 l41 -19 -153 0
-153 -1 -46 98 c-221 474 -259 525 -403 541 -52 6 -49 7 45 13 55 3 117 13
136 21 51 21 107 81 138 146 22 47 26 70 26 141 0 72 -4 94 -28 145 -33 70
-67 109 -120 136 -40 21 -173 43 -225 37 l-32 -3 -4 -345 c-2 -190 -1 -446 3
-570 5 -200 8 -229 26 -259 27 -47 63 -71 127 -86 47 -12 19 -13 -252 -13
-287 -1 -302 0 -250 14 60 16 105 52 125 99 17 40 29 627 17 871 -7 162 -10
184 -31 218 -26 41 -85 76 -131 76 -16 0 -30 5 -30 11 0 8 102 10 358 6 319
-3 364 -6 423 -24z m1520 -10 c0 -21 4 -91 7 -156 5 -85 4 -117 -4 -117 -7 0
-15 17 -19 37 -10 53 -48 123 -87 159 -76 72 -163 93 -385 94 l-132 0 -3 -286
c-2 -157 0 -291 3 -296 11 -17 177 -4 219 17 48 23 78 70 92 144 6 33 15 61
20 61 4 0 8 -115 8 -255 0 -141 -4 -255 -9 -255 -10 0 -21 34 -21 65 0 32 -45
120 -76 148 -32 30 -99 47 -183 47 l-59 0 4 -147 c8 -290 10 -308 37 -366 48
-106 136 -143 319 -135 83 4 115 10 159 30 98 45 159 125 195 257 10 34 21 61
26 61 10 0 11 -185 2 -293 l-7 -77 -566 1 c-518 0 -561 2 -511 15 66 18 116
62 132 119 8 28 12 182 12 520 l1 480 -23 47 c-29 59 -70 89 -128 96 -24 2
-44 9 -44 13 0 5 227 9 510 9 l510 0 1 -37z m871 -30 c17 -38 88 -210 158
-383 160 -394 258 -627 298 -706 33 -66 78 -110 120 -120 15 -3 41 -10 57 -14
17 -5 -105 -8 -280 -8 -295 0 -307 1 -253 15 43 11 66 24 89 51 28 32 31 40
27 86 -3 30 -32 117 -69 211 l-64 160 -208 3 -207 2 -15 -32 c-8 -18 -34 -85
-57 -148 -36 -96 -43 -127 -43 -187 0 -66 2 -74 30 -103 16 -17 50 -37 75 -45
42 -13 29 -14 -170 -13 -199 0 -212 1 -170 14 59 19 112 72 159 163 40 78 170
399 259 641 71 192 158 413 176 449 27 52 52 42 88 -36z m1314 58 c-3 -4 -24
-11 -47 -14 -71 -9 -125 -63 -140 -138 -12 -61 -11 -809 1 -892 26 -175 120
-236 348 -224 83 4 112 10 155 31 98 48 156 127 196 267 10 35 22 63 27 61 9
-2 8 -222 -2 -324 l-6 -58 -566 1 c-366 1 -553 4 -527 10 69 16 93 30 120 70
41 58 47 155 43 634 -3 402 -4 422 -24 466 -26 56 -72 90 -130 97 -24 2 -44 9
-44 13 0 5 135 9 301 9 166 0 298 -4 295 -9z m2135 2 c0 -5 2 -15 3 -23 2 -8
7 -75 11 -147 8 -152 -2 -170 -34 -64 -28 91 -89 157 -176 191 -54 21 -78 23
-240 24 l-180 1 -3 -292 -2 -293 73 0 c40 0 97 7 125 15 66 20 104 68 121 155
7 33 16 60 20 60 11 0 7 -500 -5 -500 -4 -1 -14 26 -20 59 -7 33 -18 70 -24
83 -38 73 -112 108 -228 108 l-65 0 6 -212 c8 -261 17 -302 87 -370 38 -36 60
-49 103 -58 71 -16 246 -8 309 15 96 34 179 138 212 267 7 29 18 54 25 56 13
4 14 -35 4 -231 l-6 -137 -566 1 c-495 1 -560 2 -517 14 64 18 96 42 121 91
19 37 20 62 23 513 2 311 -1 492 -8 526 -16 76 -84 135 -156 135 -13 0 -24 5
-24 10 0 12 1010 14 1011 3z m2513 -130 c4 -76 9 -155 12 -175 5 -30 2 -38 -9
-38 -10 0 -18 14 -22 39 -16 96 -85 195 -165 236 -50 26 -150 44 -260 47
l-105 3 0 -560 c0 -552 0 -561 22 -607 25 -54 55 -76 126 -94 45 -11 13 -12
-253 -12 -263 0 -298 1 -254 12 71 17 109 47 131 104 17 43 18 88 18 602 l0
555 -100 -3 c-200 -6 -299 -43 -360 -135 -29 -44 -40 -73 -71 -174 -2 -7 -9
-13 -15 -13 -11 0 -8 143 7 293 l6 57 643 0 643 0 6 -137z m757 42 c22 -49 83
-198 135 -330 111 -276 250 -608 299 -710 51 -106 75 -127 170 -150 43 -11 6
-13 -260 -13 -292 0 -307 1 -255 15 61 16 84 33 107 77 22 42 11 88 -61 271
l-64 160 -210 3 -210 2 -16 -42 c-8 -24 -34 -92 -57 -153 -69 -187 -55 -272
54 -314 l52 -20 -210 1 c-171 0 -203 3 -170 12 50 13 124 85 160 156 28 56
210 514 320 805 111 297 126 326 154 323 19 -2 30 -19 62 -93z m1973 -22 c4
-65 9 -144 12 -175 4 -47 2 -58 -10 -58 -9 0 -17 14 -21 39 -16 96 -85 195
-165 236 -46 24 -146 43 -263 51 l-108 7 3 -564 c3 -553 3 -565 25 -611 25
-54 53 -75 125 -93 47 -11 18 -13 -252 -13 -265 0 -298 1 -253 12 71 18 101
40 126 94 22 46 22 58 25 611 l3 563 -103 -7 c-271 -18 -351 -66 -412 -246
-37 -111 -49 -103 -42 27 4 60 9 139 12 177 l6 67 643 0 643 0 6 -117z m1120
45 c18 -233 18 -240 6 -236 -7 2 -21 30 -30 62 -24 74 -62 129 -117 165 -67
45 -128 56 -313 56 l-165 0 -3 -294 -2 -294 93 5 c149 8 197 42 221 160 7 34
19 64 26 66 11 4 12 -12 7 -79 -4 -46 -7 -162 -7 -256 0 -167 -10 -223 -24
-127 -7 55 -39 130 -68 162 -29 30 -107 52 -186 52 l-65 0 6 -217 c6 -253 16
-299 77 -361 57 -60 121 -76 269 -70 102 4 123 8 175 34 92 45 149 122 184
249 10 36 22 65 27 63 10 -3 9 -218 -1 -315 l-5 -53 -567 1 c-473 1 -559 3
-516 13 71 17 109 47 131 104 17 43 18 86 18 532 0 516 -1 524 -49 579 -24 28
-75 51 -110 51 -14 0 -28 5 -31 10 -4 7 166 10 503 10 l510 0 6 -72z m-10384
-2304 c0 -203 4 -322 11 -335 5 -11 22 -25 37 -32 26 -11 24 -12 -25 -15 -29
-2 -78 -2 -110 0 -53 3 -56 4 -32 15 15 6 29 19 33 28 3 9 6 144 6 300 0 156
-3 291 -6 300 -4 9 -18 22 -33 28 -25 11 -25 11 19 17 25 4 57 8 73 8 l27 2 0
-316z m-4534 291 c-123 -44 -197 -213 -175 -400 16 -129 76 -211 177 -241 59
-18 99 -18 161 3 61 19 97 57 113 119 13 47 34 62 24 17 -15 -64 -52 -118
-101 -148 -45 -28 -55 -30 -149 -30 -123 0 -180 19 -247 82 -63 58 -91 126
-97 229 -8 151 46 266 160 339 36 22 105 44 143 44 29 0 29 0 -9 -14z m4089 8
c-93 -24 -113 -156 -32 -216 18 -14 69 -43 114 -67 46 -23 96 -57 112 -76 107
-121 28 -320 -131 -330 -45 -3 -48 -2 -20 5 69 18 110 86 97 162 -9 54 -44 92
-123 135 -115 63 -141 83 -162 124 -57 113 25 272 140 268 20 0 21 -1 5 -5z
m2987 -23 c-55 -25 -62 -46 -62 -181 l0 -109 174 0 c155 0 175 2 180 17 4 10
4 64 0 121 -8 115 -18 138 -75 158 -29 11 -12 12 126 13 l160 0 -40 -18 c-24
-11 -46 -30 -53 -45 -16 -36 -17 -499 -1 -545 9 -24 23 -38 53 -51 l41 -19
-160 0 c-147 0 -163 4 -103 23 35 11 48 50 55 163 3 61 3 122 -1 136 l-6 26
-173 -2 -172 -2 -3 -125 c-3 -149 5 -175 62 -200 l41 -19 -160 0 -160 0 42 19
c23 10 46 28 52 39 7 12 11 115 11 284 0 296 0 298 -71 323 -29 11 -12 13 126
13 l160 1 -43 -20z m-5242 -217 c1 -27 17 -32 55 -18 113 40 227 -5 270 -107
18 -44 20 -131 4 -179 -27 -78 -101 -139 -171 -139 l-33 0 35 19 c57 30 85 97
85 201 0 68 -5 93 -22 127 -39 73 -89 98 -146 72 -46 -21 -61 -64 -65 -183 -5
-127 6 -174 49 -210 33 -28 28 -33 -11 -11 -14 8 -28 14 -32 15 -5 0 -8 -35
-8 -78 0 -85 14 -117 53 -125 12 -2 -30 -4 -93 -4 -63 0 -105 2 -93 4 46 9 48
20 48 293 0 240 -1 259 -19 279 -11 12 -28 21 -39 21 -37 0 -11 10 49 19 82
12 84 12 84 4z m-1166 -14 c42 -12 119 -77 141 -120 22 -42 28 -101 15 -147
-20 -78 -119 -161 -190 -162 -23 0 -22 2 10 18 21 10 45 34 60 62 22 39 25 58
25 135 0 104 -23 162 -78 195 -65 40 -122 17 -162 -64 -58 -118 -22 -290 69
-333 l31 -14 -44 5 c-60 6 -119 51 -153 116 -36 67 -36 120 -3 187 52 104 165
154 279 122z m351 -19 c7 -31 19 -38 31 -19 11 18 87 49 122 49 39 0 85 -22
105 -50 15 -21 15 -21 63 9 83 53 160 53 213 1 l29 -30 4 -161 c3 -144 5 -163
21 -173 57 -34 55 -35 -55 -36 -66 0 -108 4 -108 10 0 6 9 10 20 10 35 0 42
33 38 197 -3 149 -4 156 -27 174 -31 25 -91 25 -124 -1 -36 -29 -47 -76 -47
-210 0 -119 12 -160 46 -160 8 0 14 -4 14 -10 0 -6 -42 -10 -105 -10 -58 0
-105 2 -105 5 0 3 11 10 25 15 37 14 45 47 45 185 0 167 -17 205 -88 205 -44
0 -76 -20 -97 -60 -22 -43 -22 -292 1 -314 8 -9 22 -16 30 -16 8 0 14 -4 14
-10 0 -6 -42 -10 -105 -10 -58 0 -105 2 -105 5 0 3 11 10 24 15 34 13 46 62
46 195 0 135 -11 182 -46 191 -34 9 -23 17 34 25 80 11 80 11 87 -21z m1477 6
c20 -10 40 -28 47 -42 6 -15 11 -84 11 -174 0 -122 3 -151 16 -164 20 -20 33
-20 56 1 22 20 24 1 2 -21 -9 -10 -33 -16 -60 -16 -35 0 -50 6 -68 25 l-23 24
-33 -24 c-27 -20 -46 -25 -93 -25 -51 0 -62 4 -88 29 -21 22 -29 39 -29 65 0
55 40 92 124 116 87 25 116 50 116 102 0 21 -6 54 -14 73 -27 63 -102 57 -130
-10 -12 -27 -21 -35 -40 -35 -36 0 -51 32 -28 59 36 42 162 51 234 17z m306
-4 c2 -12 4 -22 5 -22 1 0 24 11 51 25 55 28 110 32 159 12 58 -25 62 -35 67
-215 5 -145 8 -167 24 -176 56 -34 54 -35 -59 -35 -98 0 -108 1 -90 14 46 33
45 30 45 196 0 156 -1 160 -25 184 -35 36 -94 34 -137 -4 l-33 -29 -3 -147
c-3 -121 -1 -150 12 -171 9 -13 23 -24 31 -24 8 0 15 -4 15 -10 0 -6 -42 -10
-105 -10 -58 0 -105 2 -105 5 0 3 11 10 25 15 37 14 45 47 45 195 0 145 -8
181 -42 194 l-23 9 25 6 c83 19 114 16 118 -12z m2188 0 c48 -24 75 -53 104
-110 60 -116 -25 -279 -156 -299 l-39 -6 35 24 c52 36 85 109 85 189 0 120
-53 206 -134 217 -38 5 -44 3 -79 -34 -44 -46 -62 -98 -62 -175 0 -94 45 -184
105 -208 19 -8 19 -9 -3 -9 -81 -3 -175 86 -196 185 -18 81 46 187 138 231 61
29 139 27 202 -5z m412 13 c34 -14 41 -14 68 0 38 20 67 19 94 -3 14 -11 19
-23 15 -35 -9 -23 -38 -22 -60 3 -19 21 -50 26 -60 10 -3 -5 2 -21 11 -35 21
-32 24 -103 5 -137 -19 -36 -79 -66 -147 -74 -68 -8 -94 -19 -94 -39 0 -25 36
-35 120 -35 131 0 190 -37 190 -120 0 -25 -7 -56 -16 -68 -22 -32 -87 -62
-131 -62 l-38 1 39 14 c55 19 80 47 80 90 0 57 -21 69 -127 73 -75 3 -90 1
-79 -9 6 -7 12 -20 12 -28 0 -12 -3 -11 -18 2 -10 10 -22 17 -27 17 -18 0 -45
-34 -45 -57 0 -39 19 -63 63 -84 32 -14 37 -19 19 -19 -31 0 -77 25 -96 52
-37 52 -6 128 52 128 l27 1 -28 17 c-53 33 -49 103 8 123 l35 13 -30 27 c-76
70 -62 181 28 229 45 23 80 25 130 5z m424 3 c21 -6 50 -22 63 -34 24 -23 25
-26 25 -176 0 -123 3 -158 16 -176 18 -26 37 -28 59 -6 9 9 18 14 21 11 3 -3
-4 -15 -15 -26 -31 -31 -100 -29 -130 3 l-23 24 -35 -24 c-51 -34 -140 -34
-180 0 -23 20 -28 32 -28 71 0 60 29 86 126 115 89 27 109 46 109 104 0 59
-14 94 -44 107 -39 18 -73 3 -96 -42 -18 -34 -25 -40 -48 -37 -37 4 -44 51
-11 69 57 30 127 36 191 17z m336 -16 c4 -27 3 -27 45 -2 72 43 170 35 218
-16 23 -24 24 -34 29 -191 3 -109 9 -168 16 -170 6 -2 20 -10 30 -18 17 -13 7
-14 -90 -15 -108 0 -117 3 -74 24 32 16 40 65 36 215 -4 131 -4 134 -31 157
-51 44 -128 26 -159 -36 -14 -28 -18 -61 -18 -157 0 -136 8 -169 45 -183 14
-5 25 -12 25 -15 0 -3 -47 -5 -105 -5 -63 0 -105 4 -105 10 0 6 6 10 14 10 8
0 22 10 30 22 13 18 16 53 16 173 0 158 -9 195 -47 195 -32 0 -1 14 45 21 66
9 77 7 80 -19z m1780 1 c36 -27 72 -81 72 -109 0 -23 -1 -23 -142 -26 l-143
-3 2 -57 c4 -131 96 -211 205 -179 28 9 45 22 61 48 11 20 23 31 25 25 7 -21
-32 -74 -68 -94 -28 -15 -51 -19 -117 -16 -73 3 -85 6 -120 34 -69 55 -99 158
-73 252 14 52 79 122 130 139 51 17 135 10 168 -14z m277 -3 l7 -30 33 26 c66
50 159 41 153 -14 -4 -36 -28 -38 -62 -7 -39 36 -76 31 -98 -15 -15 -28 -18
-62 -18 -177 0 -147 0 -146 45 -178 18 -13 8 -14 -89 -15 -109 0 -117 3 -74
24 30 15 35 45 37 192 1 137 -9 181 -45 190 -42 11 -13 21 93 33 6 0 14 -12
18 -29z m519 10 c49 -24 75 -58 83 -105 l6 -34 -144 -3 -144 -3 2 -58 c3 -102
60 -175 145 -184 56 -7 101 15 124 60 10 19 19 27 22 19 2 -7 -7 -30 -22 -52
-32 -49 -75 -63 -171 -58 -64 3 -78 7 -111 34 -48 39 -77 94 -82 159 -8 100
37 181 122 221 63 29 117 30 170 4z m-5398 -6 c-24 -14 -27 -20 -22 -47 9 -46
88 -257 96 -257 9 0 100 234 100 257 0 23 -10 37 -35 51 -16 9 -6 11 55 12
l74 0 -32 -27 c-25 -22 -51 -76 -128 -263 -53 -129 -102 -247 -110 -262 -18
-34 -43 -48 -87 -48 -39 0 -61 19 -51 44 5 14 18 16 63 14 l56 -3 22 45 c12
25 22 53 23 64 0 18 -88 248 -136 357 -14 31 -35 61 -47 67 -17 8 3 11 83 11
100 0 104 0 76 -15z m-4556 -379 l0 -45 -3280 0 -3280 0 0 45 0 45 3280 0
3280 0 0 -45z m17396 -2 l2 -43 -3279 0 -3279 0 0 45 0 45 3278 -2 3277 -3 1
-42z"/>
<path d="M13300 20285 c-15 -14 -150 -121 -237 -187 -26 -20 -111 -86 -188
-145 -77 -59 -185 -142 -239 -183 -54 -41 -116 -88 -138 -105 -21 -16 -101
-77 -178 -135 l-139 -105 -1 -1502 c0 -827 3 -1503 8 -1503 4 0 41 25 82 55
41 31 81 53 88 50 7 -3 10 0 7 5 -3 6 1 10 10 10 9 0 14 4 10 9 -3 6 4 15 15
21 20 11 20 15 21 1323 0 722 4 1345 8 1385 5 53 12 77 23 83 9 5 52 36 95 69
l78 59 7 -1932 c5 -1063 12 -2038 16 -2167 7 -188 9 -76 10 558 l2 794 28 -22
c15 -12 60 -46 100 -76 l72 -55 0 1543 0 1543 53 38 c28 20 75 55 102 76 l50
38 5 -1700 5 -1700 123 -93 122 -94 0 2030 c0 1117 -1 2030 -2 2029 -2 0 -10
-7 -18 -14z"/>
<path d="M13567 20153 c-4 -3 -7 -44 -7 -89 0 -74 2 -85 21 -95 12 -6 51 -32
88 -59 36 -26 188 -134 336 -240 149 -106 316 -226 373 -266 56 -41 104 -74
107 -74 3 0 4 41 3 92 l-3 91 -145 104 c-80 58 -253 181 -385 276 -132 94
-269 192 -305 219 -68 50 -72 52 -83 41z"/>
<path d="M13569 19833 c0 -5 -1 -43 -2 -87 l-2 -78 135 -96 c74 -52 155 -110
180 -128 126 -92 586 -417 597 -421 10 -4 13 15 13 83 l-1 89 -86 60 c-125 86
-166 115 -510 363 -170 122 -313 222 -316 222 -4 0 -7 -3 -8 -7z"/>
<path d="M13570 19423 l0 -88 103 -72 c56 -40 179 -128 274 -195 94 -68 249
-179 344 -247 96 -68 179 -126 186 -128 10 -4 13 16 13 80 l0 86 -227 163
c-126 90 -241 172 -258 184 -16 11 -119 84 -227 162 -108 78 -200 142 -203
142 -3 0 -5 -39 -5 -87z"/>
<path d="M13572 19104 l3 -87 453 -323 c249 -178 455 -324 458 -324 2 0 3 39
2 87 l-3 87 -450 323 c-247 177 -454 322 -458 323 -4 0 -6 -39 -5 -86z"/>
<path d="M13570 18792 l0 -88 458 -327 457 -327 3 87 c3 82 1 89 -20 103 -12
8 -151 107 -308 219 -157 112 -354 253 -437 312 l-153 108 0 -87z"/>
<path d="M10978 16118 c1 -1447 3 -2633 5 -2634 4 -5 192 58 205 69 11 9 12
313 8 1756 -4 960 -3 2037 1 2393 l8 646 81 -60 82 -60 7 -767 c4 -421 5
-1458 1 -2303 -7 -1481 -7 -1538 11 -1538 10 0 55 12 100 28 l83 27 2 2165 c2
2495 1 2220 7 2220 5 0 70 -49 88 -66 7 -7 28 -22 48 -34 l35 -22 1 -96 c1
-53 5 -464 8 -913 l6 -816 102 71 102 71 0 875 0 875 -122 92 c-67 51 -255
195 -417 319 -423 325 -436 334 -446 334 -5 0 -8 -1053 -6 -2632z"/>
<path d="M10621 18553 c-66 -49 -234 -169 -372 -268 -139 -99 -261 -189 -273
-200 -19 -18 -21 -28 -16 -93 l5 -73 345 246 c190 135 369 263 398 285 l52 40
0 69 c0 39 -4 72 -9 75 -5 3 -63 -33 -130 -81z"/>
<path d="M13571 18473 l0 -88 316 -225 c174 -124 346 -246 382 -272 l66 -46
57 41 c32 23 56 45 55 49 -1 5 -538 391 -844 606 l-33 23 1 -88z"/>
<path d="M10726 18361 c-4 -5 -34 -30 -69 -54 -34 -24 -129 -92 -212 -152 -82
-60 -225 -162 -317 -228 l-168 -120 0 -79 c0 -54 3 -77 11 -73 6 4 139 100
297 213 158 113 331 237 386 276 l98 71 1 74 c0 69 -11 99 -27 72z"/>
<path d="M13570 18143 l1 -88 260 -185 c144 -102 267 -186 275 -188 15 -4 114
64 114 77 0 6 -282 211 -582 424 l-68 48 0 -88z"/>
<path d="M10609 17982 c-74 -53 -250 -180 -391 -282 l-258 -184 0 -78 0 -79
58 41 c31 23 209 150 395 283 l337 241 0 78 c0 43 -1 78 -3 78 -2 0 -64 -44
-138 -98z"/>
<path d="M14530 17874 c-52 -41 -153 -119 -225 -173 -71 -55 -247 -189 -390
-298 l-260 -199 -3 -607 -2 -606 58 -47 59 -47 7 -686 c4 -377 6 -863 5 -1080
l-3 -394 35 -28 c19 -16 38 -29 43 -29 6 0 6 280 2 694 -4 382 -4 1158 0 1725
l7 1030 81 58 c44 32 84 60 88 61 4 2 8 -838 8 -1867 l0 -1870 91 -80 c50 -45
94 -81 98 -81 3 0 4 672 2 1492 -2 821 0 1736 4 2033 l7 540 82 62 81 62 6
-367 c3 -202 5 -1180 4 -2175 -1 -1296 1 -1811 9 -1820 6 -7 47 -44 91 -82 44
-38 90 -78 103 -89 l22 -19 0 2481 c0 1365 -3 2482 -7 2481 -5 0 -51 -34 -103
-75z"/>
<path d="M13570 17826 l0 -85 153 -109 c83 -60 158 -112 164 -116 8 -4 36 10
68 35 46 34 54 45 43 55 -12 11 -387 280 -415 297 -10 6 -13 -11 -13 -77z"/>
<path d="M14846 17823 c-9 -29 3 -136 16 -149 21 -19 762 -546 776 -551 10 -4
12 12 10 73 l-3 79 -61 45 c-73 53 -348 252 -409 295 -178 126 -211 149 -215
154 -8 10 -98 71 -103 71 -3 0 -8 -8 -11 -17z"/>
<path d="M10714 17782 c-10 -10 -93 -70 -184 -135 -91 -64 -255 -181 -365
-261 l-200 -143 -3 -77 c-2 -42 -1 -76 2 -76 2 0 179 125 393 278 l388 279 3
76 c2 43 -1 77 -6 77 -4 0 -17 -8 -28 -18z"/>
<path d="M13570 17506 l0 -84 54 -37 c30 -20 58 -36 63 -34 17 8 102 74 103
81 0 7 -205 158 -215 158 -3 0 -5 -38 -5 -84z"/>
<path d="M14850 17483 l0 -78 123 -86 c67 -47 242 -172 389 -277 148 -106 272
-192 278 -192 6 0 10 31 10 73 l0 73 -167 120 c-92 65 -192 137 -223 159 -31
22 -133 95 -227 163 -94 67 -174 122 -177 122 -3 0 -6 -35 -6 -77z"/>
<path d="M10678 17477 c-31 -23 -205 -148 -387 -277 l-330 -235 -1 -78 0 -78
58 41 c31 23 209 151 395 283 l337 242 0 72 c0 40 -3 73 -7 73 -5 0 -34 -20
-65 -43z"/>
<path d="M14850 17196 l0 -75 168 -120 c92 -66 203 -145 246 -177 43 -31 144
-103 223 -160 80 -57 149 -104 154 -104 5 0 9 33 9 73 l0 73 -202 144 c-112
79 -234 167 -273 195 -127 93 -314 225 -320 225 -3 0 -5 -33 -5 -74z"/>
<path d="M10353 16968 l-393 -281 0 -74 c0 -40 2 -73 4 -73 3 0 181 126 395
281 l391 280 0 75 c0 41 -1 74 -2 74 -2 -1 -180 -127 -395 -282z"/>
<path d="M8745 16889 c-99 -77 -243 -188 -320 -248 -77 -60 -177 -137 -222
-171 l-83 -62 -2 -1629 -3 -1630 58 -41 c45 -31 56 -43 45 -50 -9 -7 -7 -8 8
-3 13 3 26 -1 34 -10 7 -8 19 -15 27 -15 14 0 15 107 13 923 -2 507 -2 1253
-1 1658 l1 737 68 50 c57 43 68 48 74 34 3 -9 7 -791 7 -1736 1 -946 3 -1722
6 -1724 2 -2 37 7 77 20 l73 25 -4 1149 c-2 632 0 1435 4 1784 l7 635 68 52
68 52 7 -457 c4 -251 6 -1064 3 -1805 -2 -741 -1 -1350 4 -1353 4 -3 30 3 57
13 50 17 50 17 75 -6 13 -13 28 -21 33 -18 7 5 9 3955 1 3961 -1 2 -84 -59
-183 -135z"/>
<path d="M14852 16916 l3 -73 392 -281 c215 -154 394 -278 397 -274 3 3 6 36
6 73 l0 68 -312 223 c-172 123 -348 249 -392 280 -45 32 -85 58 -89 58 -4 0
-7 -33 -5 -74z"/>
<path d="M10348 16682 l-388 -277 0 -77 0 -77 338 243 c185 133 363 260 394
282 l57 39 1 73 c0 39 -3 72 -7 72 -5 -1 -182 -126 -395 -278z"/>
<path d="M9105 16928 c-2 -7 -6 -35 -7 -63 l-3 -50 57 -40 c120 -84 249 -176
419 -298 97 -70 179 -127 183 -127 3 0 6 29 6 64 l0 65 -147 104 c-129 91
-307 220 -438 315 -57 42 -65 45 -70 30z"/>
<path d="M14852 16644 l3 -77 389 -278 c214 -153 392 -277 395 -275 5 4 7 109
2 138 0 4 -66 54 -145 110 -79 57 -250 179 -380 271 -130 93 -238 173 -242
178 -16 27 -25 2 -22 -67z"/>
<path d="M9105 16700 c-12 -19 -2 -113 14 -126 13 -11 385 -277 468 -334 11
-8 50 -35 85 -60 34 -25 69 -49 76 -53 9 -6 12 7 12 56 l0 64 -262 188 c-145
103 -285 205 -313 225 -66 49 -73 52 -80 40z"/>
<path d="M12750 15321 c0 -1159 1 -1241 17 -1241 9 0 53 12 98 27 l82 26 6
1015 c4 558 9 1017 11 1020 4 4 110 -73 144 -105 10 -10 14 -193 19 -938 4
-657 9 -925 17 -925 6 1 25 7 41 14 28 12 33 11 71 -21 23 -18 44 -33 48 -33
3 0 7 312 7 693 1 380 4 771 8 868 l6 177 76 -57 76 -56 6 -590 c4 -324 7
-730 7 -902 0 -171 4 -313 9 -315 4 -1 39 -30 76 -63 36 -32 75 -65 86 -73 19
-13 19 3 17 999 l-3 1013 -225 173 c-330 255 -407 315 -449 348 -76 60 -235
180 -243 183 -4 2 -8 -555 -8 -1237z"/>
<path d="M9110 16408 l1 -63 315 -225 c174 -124 320 -226 325 -228 5 -2 9 23
9 56 0 58 -2 62 -37 89 -64 50 -602 433 -608 433 -3 0 -5 -28 -5 -62z"/>
<path d="M12484 16449 c-3 -5 3 -6 13 -2 31 11 4 -12 -122 -102 -66 -47 -167
-119 -225 -160 -58 -41 -163 -117 -235 -168 l-130 -94 -3 -71 c-2 -43 1 -72 7
-72 6 0 151 100 323 223 172 122 339 241 370 262 l58 40 0 75 c0 73 -1 75 -25
76 -14 1 -28 -2 -31 -7z"/>
<path d="M14850 16368 l1 -73 393 -282 c217 -155 396 -280 398 -278 1 2 1 36
0 77 l-4 73 -385 275 c-212 151 -389 277 -394 278 -5 2 -9 -29 -9 -70z"/>
<path d="M9112 16179 l3 -62 305 -219 c168 -120 313 -223 323 -229 15 -9 17
-4 17 53 -1 61 -2 64 -38 89 -20 14 -164 116 -318 227 -155 111 -285 202 -288
202 -4 0 -6 -28 -4 -61z"/>
<path d="M16682 14654 l3 -1568 80 -28 c44 -15 83 -28 87 -28 5 0 7 366 5 813
-1 446 -1 1090 1 1430 l2 619 50 -39 c27 -21 60 -45 72 -54 l23 -17 3 -1404 3
-1404 71 -25 c38 -13 72 -23 75 -21 3 1 5 410 5 910 0 499 3 1110 6 1359 l7
451 66 -48 66 -48 6 -203 c4 -112 7 -716 7 -1341 l0 -1137 80 -25 c43 -14 82
-26 85 -26 3 0 5 627 4 1393 l0 1392 -191 145 c-104 80 -281 215 -392 300
-110 86 -207 159 -214 164 -10 6 -12 -306 -10 -1560z"/>
<path d="M12505 16175 c-21 -16 -226 -165 -485 -350 -263 -189 -235 -160 -238
-243 -2 -40 1 -72 5 -72 4 0 80 52 168 115 88 63 256 183 373 267 l212 152 0
73 c0 40 -4 73 -8 73 -4 0 -17 -7 -27 -15z"/>
<path d="M14850 16087 l0 -73 233 -167 c127 -91 304 -217 392 -280 l160 -115
3 71 c2 48 -1 74 -10 83 -13 12 -742 534 -765 548 -10 5 -13 -10 -13 -67z"/>
<path d="M16434 16094 c-62 -45 -300 -216 -466 -335 l-128 -91 0 -64 c0 -35 3
-64 6 -64 3 0 25 15 49 33 24 17 98 70 165 117 177 125 382 272 413 296 24 20
27 28 27 83 0 34 -4 61 -9 61 -5 0 -30 -16 -57 -36z"/>
<path d="M9110 15953 l0 -58 254 -183 c140 -100 261 -185 269 -188 8 -3 18 -1
22 5 10 17 39 13 63 -9 30 -28 44 -25 40 10 -3 26 -36 53 -313 251 -170 122
-316 224 -322 226 -10 4 -13 -11 -13 -54z"/>
<path d="M12410 15837 c-63 -46 -231 -166 -372 -267 l-258 -183 0 -70 c0 -55
3 -68 14 -64 13 5 408 284 630 444 49 36 95 67 102 70 10 4 14 26 14 79 0 41
-3 74 -7 74 -5 0 -60 -38 -123 -83z"/>
<path d="M16434 15864 c-45 -32 -157 -113 -478 -342 l-116 -83 0 -60 c0 -32 4
-59 9 -59 6 0 128 85 273 188 145 103 289 206 320 227 l58 40 0 63 c0 34 -4
62 -9 62 -5 0 -30 -16 -57 -36z"/>
<path d="M9110 15732 l0 -58 185 -133 c200 -142 206 -144 252 -95 l22 24 -32
23 c-127 94 -415 297 -420 297 -4 0 -7 -26 -7 -58z"/>
<path d="M16195 15459 c-391 -281 -355 -249 -355 -313 0 -29 3 -55 6 -58 3 -4
151 98 330 225 l324 232 0 57 c0 31 -3 59 -7 61 -5 2 -138 -90 -298 -204z"/>
<path d="M12158 15393 l-378 -268 0 -67 c0 -38 4 -68 9 -68 9 0 716 501 739
524 9 9 12 35 10 80 l-3 68 -377 -269z"/>
<path d="M9110 15501 l0 -60 106 -77 c89 -65 109 -75 123 -66 9 7 26 17 39 24
12 6 22 17 22 23 0 9 -216 172 -277 208 -10 6 -13 -5 -13 -52z"/>
<path d="M16340 15333 c-80 -57 -221 -159 -315 -226 -93 -66 -173 -126 -177
-131 -11 -16 -10 -116 2 -116 5 0 123 82 263 183 140 100 284 203 321 229 l66
48 0 54 c0 30 -3 57 -7 59 -5 3 -73 -43 -153 -100z"/>
<path d="M9748 14278 c1 -629 3 -1179 5 -1222 l2 -80 70 72 70 72 5 1015 5
1015 52 -37 52 -38 0 -957 c1 -760 4 -958 14 -957 6 0 35 8 62 18 l50 18 5
886 5 887 58 -46 57 -46 0 -820 c0 -652 3 -819 13 -816 6 3 36 13 65 22 l52
18 0 827 0 827 -162 124 c-290 223 -472 360 -477 360 -3 0 -5 -514 -3 -1142z"/>
<path d="M12210 15169 c-168 -120 -333 -239 -367 -263 l-63 -46 0 -65 c0 -46
4 -65 13 -64 6 0 176 118 377 262 l365 262 3 68 c2 50 0 67 -10 66 -7 -1 -150
-99 -318 -220z"/>
<path d="M16166 14987 c-170 -122 -313 -229 -319 -238 -5 -9 -7 -28 -3 -43 l7
-27 38 30 c33 26 40 28 52 16 13 -13 49 10 282 176 l267 191 0 43 c0 24 3 50
6 59 4 10 1 16 -7 16 -8 -1 -153 -101 -323 -223z"/>
<path d="M12155 14866 l-370 -263 -3 -67 c-2 -43 1 -66 8 -66 11 0 687 477
728 513 18 17 22 31 22 84 0 35 -3 63 -7 63 -5 0 -174 -119 -378 -264z"/>
<path d="M16309 14862 c-96 -70 -199 -144 -228 -165 l-53 -38 31 -23 c17 -13
29 -25 26 -27 -2 -3 6 -5 18 -4 12 0 104 59 204 130 l183 130 0 63 c0 34 -1
62 -2 61 -2 0 -82 -57 -179 -127z"/>
<path d="M12500 14841 c-14 -10 -181 -129 -372 -265 l-348 -247 0 -65 c0 -50
3 -65 13 -62 8 2 179 120 380 263 l366 260 0 68 c1 37 -2 67 -6 67 -5 0 -19
-9 -33 -19z"/>
<path d="M16342 14649 c-78 -55 -142 -104 -142 -107 1 -4 18 -19 40 -34 l40
-27 105 75 105 76 0 59 c0 33 -1 59 -3 59 -2 0 -67 -45 -145 -101z"/>
<path d="M15779 14557 c-36 -29 -83 -65 -105 -82 -21 -16 -132 -101 -246 -189
l-208 -159 0 -824 0 -825 46 -41 c26 -23 55 -48 65 -55 18 -13 19 9 19 765 0
428 3 814 6 858 l7 80 40 25 c22 14 46 31 53 38 12 11 14 -137 14 -940 l1
-953 43 -37 c40 -34 45 -36 65 -22 l21 15 0 1027 0 1027 55 38 55 38 0 -1011
0 -1012 38 31 c20 17 54 45 74 63 l36 33 5 1083 c3 784 1 1082 -7 1081 -6 0
-41 -24 -77 -52z"/>
<path d="M12369 14487 c-86 -62 -253 -181 -372 -266 l-217 -154 0 -62 c0 -34
2 -64 5 -67 5 -5 695 481 738 519 13 12 17 32 17 80 0 34 -3 63 -7 62 -5 0
-78 -50 -164 -112z"/>
<path d="M10602 14358 l-142 -101 0 -79 c0 -43 1 -78 3 -78 1 0 43 29 92 65
50 36 114 82 143 102 l52 36 0 78 c0 44 -1 79 -3 79 -1 0 -66 -46 -145 -102z"/>
<path d="M12169 14089 c-195 -138 -362 -257 -371 -266 -19 -17 -24 -58 -9 -67
5 -3 51 9 103 27 85 29 118 50 371 231 l277 198 0 64 c0 35 -4 64 -8 64 -5 0
-168 -113 -363 -251z"/>
<path d="M7402 13455 c2 -566 6 -866 13 -868 6 -1 11 30 13 75 l3 77 53 42 54
42 3 603 c2 331 7 605 11 609 6 7 48 -19 91 -55 16 -13 17 -51 17 -533 0 -452
2 -518 15 -514 8 4 37 23 65 44 l50 37 0 423 0 424 22 -12 c12 -6 33 -22 47
-35 14 -13 29 -24 33 -24 5 0 8 -153 8 -340 0 -187 4 -340 9 -340 7 0 50 31
104 75 15 14 17 12 17 -13 1 -35 11 -156 14 -159 1 -1 1 183 -1 409 -2 227 -6
415 -10 418 -5 4 -57 44 -118 90 -60 46 -144 110 -185 142 -264 203 -323 248
-326 248 -2 0 -3 -389 -2 -865z"/>
<path d="M7235 14239 c-4 -6 -14 -8 -22 -5 -8 3 -12 2 -9 -3 3 -5 -100 -85
-228 -177 l-235 -169 0 -52 c-1 -29 2 -53 5 -53 3 0 47 30 98 66 458 328 429
302 418 372 -4 32 -15 41 -27 21z"/>
<path d="M10603 14077 l-143 -102 0 -77 c0 -43 2 -78 4 -78 5 0 212 148 259
184 28 23 30 27 28 97 -1 40 -2 74 -4 75 -1 1 -66 -43 -144 -99z"/>
<path d="M7093 13957 c-84 -62 -198 -145 -253 -184 l-100 -73 0 -51 0 -51 29
19 c16 10 133 92 260 183 l231 165 0 53 c0 28 -3 52 -7 52 -5 -1 -77 -51 -160
-113z"/>
<path d="M10700 13872 c-19 -16 -81 -61 -137 -101 l-103 -72 0 -80 0 -80 63
45 c34 25 100 72 147 105 l85 59 -1 73 c0 40 -5 74 -10 76 -5 2 -25 -10 -44
-25z"/>
<path d="M7174 13827 c-39 -29 -153 -110 -252 -182 l-181 -130 -1 -54 0 -53
33 24 c17 13 134 97 260 187 l227 162 0 50 c0 27 -3 49 -7 49 -5 -1 -40 -24
-79 -53z"/>
<path d="M7215 13676 c-43 -33 -393 -285 -437 -315 -36 -23 -38 -27 -38 -78
l0 -52 260 186 260 187 0 48 c0 26 -3 48 -7 48 -5 0 -21 -11 -38 -24z"/>
<path d="M14852 13574 l3 -77 144 -103 c79 -57 147 -102 150 -99 4 2 8 35 9
73 l3 69 -149 107 c-82 58 -153 106 -156 106 -4 0 -6 -34 -4 -76z"/>
<path d="M10598 13509 l-138 -100 0 -50 c0 -27 4 -49 8 -49 32 0 139 49 204
93 l78 52 0 78 c0 42 -3 77 -7 76 -5 0 -70 -45 -145 -100z"/>
<path d="M7150 13449 c-52 -39 -166 -121 -252 -182 l-158 -111 0 -49 c0 -27 4
-47 9 -45 5 2 122 84 260 183 l251 180 0 48 c0 26 -3 47 -7 47 -5 -1 -51 -33
-103 -71z"/>
<path d="M17993 13350 c-114 -88 -256 -197 -315 -243 l-108 -82 0 -117 0 -116
62 -21 c34 -12 66 -21 70 -21 4 0 8 51 8 113 l0 112 53 38 52 39 5 -173 5
-172 50 -18 c28 -10 56 -18 63 -18 9 -1 12 36 12 152 0 83 3 196 7 249 l6 97
44 31 c24 18 47 30 49 27 3 -3 8 -139 11 -301 l6 -296 66 -66 66 -65 2 178 c7
471 7 833 1 833 -3 0 -100 -72 -215 -160z"/>
<path d="M18350 13392 c0 -55 -18 -39 255 -232 88 -62 183 -131 212 -152 29
-21 55 -38 58 -38 3 0 5 24 5 53 l-1 52 -71 50 c-39 28 -111 79 -159 115 -190
139 -277 200 -288 200 -6 0 -11 -20 -11 -48z"/>
<path d="M14850 13293 l1 -78 145 -103 c79 -57 149 -100 155 -97 13 9 9 132
-5 149 -13 14 -282 206 -290 206 -3 0 -6 -35 -6 -77z"/>
<path d="M7189 13297 c-31 -23 -145 -105 -252 -182 l-197 -140 0 -47 c0 -27 2
-48 5 -48 5 0 301 212 443 317 71 53 72 54 72 98 0 25 -3 45 -7 45 -5 0 -33
-20 -64 -43z"/>
<path d="M18350 13212 l0 -48 255 -182 c140 -100 259 -182 265 -182 5 0 10 21
10 48 l-1 47 -126 90 c-69 50 -183 132 -253 183 -70 50 -133 92 -139 92 -7 0
-11 -19 -11 -48z"/>
<path d="M6993 12968 l-253 -181 0 -49 c0 -38 3 -47 13 -41 8 4 125 88 260
186 l247 179 0 44 c0 24 -3 44 -7 44 -5 0 -122 -82 -260 -182z"/>
<path d="M7900 13045 c-47 -36 -159 -122 -250 -193 l-165 -128 -3 -81 -3 -81
47 -16 c26 -9 51 -16 56 -16 4 0 8 33 8 73 l0 73 45 32 45 32 0 -125 c0 -145
5 -151 69 -79 l41 46 0 124 0 124 38 23 37 24 3 -98 c1 -55 6 -99 10 -99 4 0
31 24 60 53 l53 53 -3 162 -3 162 -85 -65z"/>
<path d="M14850 13016 l0 -74 147 -105 c81 -59 151 -103 156 -98 4 4 7 39 5
77 l-3 68 -144 103 c-79 57 -148 103 -153 103 -4 0 -8 -33 -8 -74z"/>
<path d="M18358 13048 c-10 -67 -8 -69 257 -258 139 -99 255 -180 259 -180 3
0 6 21 6 48 l0 47 -148 106 c-81 58 -195 140 -253 182 -58 43 -108 77 -112 77
-3 0 -7 -10 -9 -22z"/>
<path d="M8823 12928 c-21 -18 -60 -54 -88 -79 -27 -26 -77 -71 -111 -100 -34
-30 -152 -135 -263 -234 l-202 -180 360 -120 361 -120 195 195 c107 107 194
198 193 202 -5 13 -389 298 -402 298 -6 0 -49 -30 -94 -66 -46 -36 -136 -103
-200 -150 -117 -85 -117 -85 -57 -27 82 79 343 303 353 303 11 0 126 -96 285
-238 l128 -114 25 23 c13 12 24 25 24 29 0 7 -446 404 -459 408 -5 2 -26 -12
-48 -30z"/>
<path d="M18360 12843 l0 -48 251 -180 c138 -99 255 -181 260 -183 5 -2 9 18
9 45 l0 48 -250 180 c-138 99 -255 182 -260 183 -6 2 -10 -18 -10 -45z"/>
<path d="M16505 12758 c-55 -50 -256 -228 -447 -396 -192 -167 -348 -308 -348
-312 0 -5 10 -16 22 -24 11 -8 53 -44 92 -79 57 -52 320 -284 471 -416 17 -14
71 -62 120 -106 50 -43 100 -88 112 -98 22 -19 25 -18 675 199 359 121 655
220 658 222 6 5 -50 57 -354 327 -143 127 -278 246 -300 267 -186 166 -583
508 -591 507 -5 0 -55 -41 -110 -91z m340 -236 c374 -325 629 -558 520 -474
-17 13 -47 34 -68 48 -20 13 -175 128 -344 255 -168 127 -313 235 -323 241
-13 9 -77 -35 -361 -248 -190 -143 -367 -274 -394 -293 l-50 -33 45 43 c98 92
375 338 570 504 52 44 112 96 134 116 l40 37 26 -20 c14 -11 106 -90 205 -176z
m-267 -395 l3 -78 -73 3 -73 3 -3 72 c-3 82 -3 82 88 80 l55 -2 3 -78z m191
77 l32 -7 -3 -71 -3 -71 -72 -3 -73 -3 0 81 0 80 44 0 c24 0 58 -3 75 -6z
m-189 -289 l0 -75 -75 0 -75 0 0 75 0 75 75 0 75 0 0 -75z m218 -2 l3 -73 -76
0 -75 0 0 75 0 76 73 -3 72 -3 3 -72z"/>
<path d="M18360 12663 l1 -48 251 -180 c138 -99 255 -181 259 -183 5 -2 9 18
9 45 l0 48 -254 183 c-140 100 -257 182 -260 182 -3 0 -6 -21 -6 -47z"/>
<path d="M18361 12483 l0 -48 250 -178 c137 -98 254 -175 259 -172 6 3 10 23
10 44 l0 37 -254 182 c-140 100 -257 182 -260 182 -3 0 -6 -21 -5 -47z"/>
<path d="M18517 12181 c87 -88 163 -161 168 -160 6 0 28 8 49 18 l39 17 -192
138 c-106 75 -199 140 -208 143 -8 3 57 -67 144 -156z"/>
<path d="M7918 7740 c-1 -148 -2 -289 -3 -312 l0 -43 110 1 c124 1 151 10 213
72 65 65 86 122 86 232 0 75 -5 105 -21 141 -27 60 -76 115 -123 139 -42 21
-140 40 -212 40 l-48 0 -2 -270z"/>
<path d="M13576 7597 c-38 -95 -79 -200 -93 -234 -13 -35 -22 -67 -19 -72 7
-11 374 -12 381 -1 5 8 -33 106 -102 265 -22 50 -50 116 -62 148 -13 31 -27
59 -30 62 -4 2 -38 -73 -75 -168z"/>
<path d="M20350 7770 c0 -3 -42 -111 -94 -240 -63 -158 -90 -237 -82 -242 11
-8 366 -9 378 -2 7 4 -19 73 -122 319 -55 130 -79 181 -80 165z"/>
<path d="M11083 5474 c-83 -54 -106 -122 -58 -169 13 -14 30 -25 37 -25 24 0
60 32 74 66 15 35 20 165 7 163 -5 0 -32 -16 -60 -35z"/>
<path d="M13992 5693 c-45 -18 -63 -170 -25 -221 26 -35 72 -41 98 -12 21 23
31 108 21 165 -11 58 -50 86 -94 68z"/>
<path d="M14438 5470 c-82 -58 -101 -138 -42 -177 33 -21 77 -2 98 42 16 34
23 175 9 174 -5 0 -34 -18 -65 -39z"/>
<path d="M16466 5679 c-30 -24 -56 -69 -56 -99 0 -19 6 -20 100 -20 l100 0 0
25 c0 55 -50 115 -96 115 -12 0 -33 -9 -48 -21z"/>
<path d="M17276 5679 c-30 -24 -56 -69 -56 -99 0 -19 6 -20 101 -20 l102 0 -6
43 c-4 30 -14 50 -37 70 -36 32 -68 34 -104 6z"/>
</g>
</svg>
