<?xml version="1.0" standalone="no"?>
<!DOCTYPE svg PUBLIC "-//W3C//DTD SVG 20010904//EN"
 "http://www.w3.org/TR/2001/REC-SVG-20010904/DTD/svg10.dtd">
<svg version="1.0" xmlns="http://www.w3.org/2000/svg"
 width="190.000000pt" height="100.000000pt" viewBox="0 0 190.000000 100.000000"
 preserveAspectRatio="xMidYMid meet">
<metadata>
Created by potrace 1.16, written by Peter Selinger 2001-2019
</metadata>
<g transform="translate(0.000000,100.000000) scale(0.038000,-0.020000)"
fill="#000000" stroke="none">
<path d="M2490 3914 l-135 -104 -5 -134 -5 -135 -109 84 c-59 47 -113 82 -120
78 -6 -3 -53 -36 -103 -72 l-93 -66 2 -45 1 -45 4 42 c4 46 1 43 133 135 l65
45 110 -83 c61 -46 113 -83 118 -84 4 0 7 62 7 138 l0 137 131 98 c72 54 134
97 138 95 4 -2 55 -37 113 -78 l107 -75 3 -85 4 -85 2 86 c2 96 6 90 -88 154
-30 21 -75 52 -100 70 l-45 32 -135 -103z"/>
<path d="M2571 3946 c-7 -8 -52 -44 -101 -82 l-90 -68 2 -115 2 -116 3 109 c3
97 6 112 26 131 24 24 60 45 77 45 7 0 10 -89 10 -301 -1 -166 1 -304 4 -307
3 -3 6 123 7 279 1 286 4 329 27 337 9 3 12 -71 12 -328 l0 -332 -25 16 c-13
9 -27 16 -30 16 -3 0 -5 -108 -5 -241 0 -224 1 -240 18 -237 15 3 17 22 20
200 2 169 5 196 17 192 12 -5 15 -36 15 -184 0 -153 2 -179 16 -184 9 -3 18
-6 20 -6 2 0 4 75 4 166 0 147 2 165 15 154 12 -10 15 -44 15 -185 0 -159 1
-173 20 -190 20 -18 20 -17 19 16 0 27 -2 30 -8 14 -7 -16 -10 -11 -16 25 -3
25 -5 61 -4 80 1 19 2 81 1 137 -2 77 -6 105 -18 117 -8 9 -20 14 -25 11 -5
-4 -9 -81 -9 -173 0 -103 -4 -162 -9 -157 -12 12 -19 375 -9 375 17 0 87 -72
91 -93 4 -19 4 -18 6 5 1 20 -9 34 -38 57 -30 24 -37 36 -34 55 4 19 1 24 -14
23 -17 -2 -18 12 -15 337 2 271 0 341 -10 347 -10 6 -8 13 10 31 l22 22 1 -44
c0 -25 0 -115 -1 -200 -1 -85 1 -152 3 -150 2 3 7 96 10 208 5 165 4 202 -7
202 -8 0 -19 -6 -25 -14z"/>
<path d="M2142 3143 l3 -518 5 500 c5 530 4 519 48 482 12 -9 11 -12 -2 -17
-15 -5 -17 -51 -19 -477 -1 -259 1 -469 6 -466 4 2 7 214 7 470 0 413 2 464
15 453 13 -11 15 -75 15 -461 0 -247 3 -449 8 -449 4 0 6 205 5 455 -2 253 1
455 6 455 5 0 19 -9 32 -19 l24 -20 -22 6 -23 5 2 -313 3 -314 2 302 c3 263 5
302 18 297 12 -5 15 -29 17 -118 l1 -111 7 110 c8 126 7 118 20 110 6 -4 10
-69 10 -162 0 -135 -2 -159 -17 -176 -17 -19 -17 -20 5 -8 22 11 22 15 22 185
l0 173 -93 72 c-52 39 -97 71 -100 71 -4 0 -6 -233 -5 -517z"/>
<path d="M2758 3433 l-98 -76 0 -65 c0 -81 8 -78 12 5 l3 62 88 66 87 66 0
-455 c0 -292 -4 -457 -10 -461 -6 -4 -10 14 -11 47 -1 29 -5 114 -8 188 l-8
135 -1 -181 -2 -181 25 -23 25 -23 0 486 c0 268 -1 487 -2 486 -2 0 -47 -34
-100 -76z"/>
<path d="M2783 3415 c-10 -11 -13 -106 -13 -400 0 -255 -3 -384 -10 -380 -6 4
-10 140 -10 376 0 203 -4 369 -8 369 -5 0 -16 -8 -25 -18 -13 -14 -17 -39 -17
-103 0 -91 -7 -132 -21 -123 -5 3 -9 1 -9 -5 0 -5 5 -13 10 -16 6 -4 10 -88
10 -220 0 -130 4 -216 10 -220 6 -4 11 114 12 336 2 263 6 343 16 347 9 3 12
-73 12 -360 0 -352 1 -364 20 -376 20 -12 20 -10 20 382 0 338 2 395 15 406
13 11 15 -8 15 -160 0 -96 2 -171 4 -169 2 2 6 80 7 174 3 145 2 170 -11 172
-8 1 -21 -4 -27 -12z"/>
<path d="M1653 3284 l-93 -74 0 -235 c0 -129 -3 -235 -6 -235 -4 0 -27 16 -50
36 -25 20 -49 32 -55 28 -7 -4 -9 -3 -5 4 18 29 -19 17 -83 -28 l-71 -51 2
-142 2 -142 4 140 3 140 37 26 c20 14 49 34 63 43 l27 17 10 -98 c6 -54 13
-133 16 -176 2 -43 7 -81 10 -85 4 -3 13 3 21 14 14 18 14 18 15 -4 0 -13 4
-21 10 -17 5 3 7 12 3 21 -3 8 3 24 13 35 11 12 18 23 16 26 -2 3 0 8 3 11 4
4 5 -8 3 -26 -3 -18 -1 -29 4 -24 11 11 23 222 12 222 -5 0 -29 19 -54 41
l-45 41 50 -37 50 -37 3 243 c2 208 5 245 19 261 9 10 21 18 26 18 6 0 0 -11
-12 -24 -17 -18 -21 -30 -15 -48 8 -22 8 -22 15 7 4 17 6 -16 6 -75 0 -88 -1
-96 -7 -50 -6 42 -8 24 -9 -80 -1 -74 -4 -196 -7 -270 -5 -129 -5 -136 15
-148 l21 -12 0 324 c0 275 2 325 15 336 13 11 15 -24 17 -301 1 -173 4 -287 8
-254 l7 60 4 -85 c2 -47 6 74 9 269 4 271 8 355 18 359 9 3 12 -61 14 -295 l3
-298 5 295 c3 162 7 275 8 250 10 -138 23 -126 21 18 -1 68 2 126 5 129 3 4
19 -2 34 -13 98 -70 135 -94 105 -68 -49 45 -121 94 -135 93 -7 0 -55 -34
-105 -75z"/>
<path d="M3161 3152 c-44 -31 -81 -60 -81 -64 0 -4 35 17 77 47 43 30 83 55
89 55 16 0 25 -12 16 -24 -4 -6 -5 -60 -2 -121 l5 -110 5 100 c4 60 7 -15 7
-190 1 -169 -2 -282 -7 -270 -8 19 -9 19 -9 -1 -1 -12 6 -24 14 -28 13 -5 15
22 15 208 0 226 7 339 21 330 5 -3 9 -128 9 -279 0 -233 2 -274 15 -279 13 -5
15 20 15 183 0 210 9 343 21 335 5 -3 9 -125 9 -271 0 -226 2 -264 14 -260 8
3 17 1 20 -6 2 -7 5 111 5 262 l1 275 -32 27 c-18 16 -28 28 -23 28 6 0 22
-10 37 -24 l28 -24 2 -246 c3 -244 3 -246 23 -230 17 14 17 16 3 11 -17 -5
-18 11 -18 233 l0 239 -99 75 -99 76 -81 -57z"/>
<path d="M1900 2774 c0 -184 3 -235 13 -232 9 4 14 58 19 202 7 201 18 279 18
125 0 -46 5 -120 12 -163 9 -62 9 -81 0 -84 -7 -2 -12 -15 -12 -29 0 -15 5
-23 13 -21 9 4 13 50 15 177 1 108 6 170 12 166 6 -4 10 -73 10 -166 0 -135 2
-159 15 -159 13 0 15 25 15 164 l0 165 -59 45 c-33 25 -62 46 -65 46 -3 0 -6
-106 -6 -236z"/>
<path d="M3058 2828 c-31 -25 -36 -33 -28 -49 6 -11 9 -93 7 -206 l-2 -188 -3
193 c-2 166 -4 192 -18 192 -9 0 -12 5 -8 13 4 6 -2 3 -14 -7 -21 -18 -22 -26
-20 -185 1 -99 4 -140 7 -101 l5 65 6 -70 c5 -51 7 -25 8 97 3 235 21 229 24
-8 2 -139 6 -188 16 -192 9 -3 12 43 12 205 0 138 4 203 10 193 5 -8 10 -96
10 -195 0 -160 2 -178 15 -164 13 13 15 48 13 226 l-3 211 -37 -30z"/>
<path d="M2439 2542 c-155 -138 -234 -211 -206 -192 11 8 17 9 17 2 0 -11 -39
-42 -53 -42 -4 0 -5 6 -1 13 4 6 -12 -6 -35 -28 -22 -21 -41 -41 -41 -44 0 -3
13 8 29 23 18 17 31 24 35 17 4 -6 11 -11 15 -11 14 0 103 72 97 78 -3 3 1 14
11 24 9 10 14 21 11 24 -6 5 20 31 156 154 42 38 50 45 83 74 22 18 23 18 70
-22 88 -73 127 -112 113 -112 -9 0 -6 -8 10 -25 12 -13 26 -23 29 -22 3 1 31
-24 62 -55 31 -32 54 -58 52 -58 -3 0 -33 21 -66 47 -34 25 -56 39 -48 29 16
-20 165 -126 177 -126 4 0 -2 10 -14 23 -35 37 -12 41 27 5 l36 -33 -34 37
c-29 31 -37 35 -50 25 -12 -10 -14 -9 -8 5 6 18 -15 42 -28 30 -5 -4 -5 -2 -2
4 7 13 -26 47 -36 37 -4 -3 -7 -2 -7 4 0 6 -58 63 -129 127 l-129 116 -143
-128z"/>
<path d="M3535 2644 c-16 -14 -24 -23 -17 -19 17 9 15 0 -5 -16 -11 -10 -14
-10 -9 -1 11 18 -9 15 -25 -5 -12 -15 -12 -16 1 -8 8 4 5 -3 -7 -17 -13 -13
-23 -31 -23 -39 0 -12 -2 -12 -11 1 -7 12 -9 8 -7 -14 4 -38 28 -48 28 -12 0
14 5 26 10 26 6 0 10 -13 10 -30 0 -20 5 -30 15 -30 11 0 15 12 15 44 0 70 19
65 22 -5 2 -40 8 -64 16 -67 10 -3 13 18 12 99 -2 77 1 103 10 101 7 -1 39
-21 71 -43 l59 -40 0 -101 0 -100 28 5 c15 3 34 8 43 12 10 4 48 -23 115 -81
134 -117 157 -135 104 -83 -102 98 -203 180 -217 175 -8 -4 -26 -9 -39 -12
l-24 -6 0 97 c0 81 -3 100 -17 111 -26 20 -121 84 -125 84 -2 0 -16 -12 -33
-26z"/>
<path d="M1279 2307 c-30 -28 -46 -45 -35 -37 11 8 26 21 34 28 7 6 21 12 30
12 11 0 -5 -21 -44 -58 -33 -31 -47 -46 -30 -32 17 14 47 40 67 58 l37 34 78
-67 79 -67 -75 71 c-41 39 -81 68 -87 66 -15 -5 -17 11 -3 20 12 7 96 -55 171
-126 31 -30 79 -75 107 -102 29 -26 52 -53 52 -59 0 -7 -17 3 -38 22 -21 19
-4 2 37 -38 42 -41 59 -62 39 -47 -21 15 -38 25 -38 22 0 -3 32 -28 70 -56 47
-34 70 -46 70 -36 0 28 22 16 104 -57 44 -40 75 -65 68 -56 -29 36 -220 197
-227 190 -3 -4 -5 -2 -3 3 3 10 -19 31 -182 176 -147 130 -215 189 -220 189
-3 0 -30 -24 -61 -53z"/>
<path d="M3628 2144 c-84 -74 -151 -141 -150 -147 2 -7 0 -9 -4 -5 -10 11 -35
-12 -27 -25 3 -6 1 -7 -5 -3 -7 4 -32 -12 -59 -40 -27 -26 -40 -41 -30 -34 14
11 20 11 26 2 8 -13 62 21 94 61 10 12 15 16 11 8 -5 -9 -3 -12 5 -7 6 4 9 11
7 15 -3 4 8 21 25 37 16 15 27 34 25 41 -5 13 58 73 77 73 7 0 -5 -16 -25 -35
-21 -20 -38 -38 -38 -42 0 -4 18 10 40 32 21 21 37 42 35 46 -6 8 55 69 69 69
5 0 -6 -16 -25 -37 -22 -24 -11 -17 34 20 37 32 70 57 73 57 3 0 37 -27 76
-60 39 -34 75 -57 81 -54 7 4 9 3 4 -1 -4 -5 7 -24 25 -42 24 -25 35 -30 45
-21 10 8 12 8 8 -4 -7 -18 30 -54 40 -39 3 6 1 11 -6 11 -7 0 -10 3 -6 6 12
12 28 -7 17 -20 -16 -20 85 -119 111 -111 11 4 26 1 34 -5 8 -7 15 -10 15 -7
0 6 -438 397 -445 397 -2 0 -73 -61 -157 -136z"/>
<path d="M4110 2111 c30 -28 58 -51 63 -51 4 0 7 16 7 35 l0 35 50 0 50 0 0
-83 0 -83 48 -44 c26 -25 64 -61 85 -80 l38 -35 202 -5 202 -6 -256 -2 -257
-2 -53 46 -54 46 53 -51 53 -51 260 0 c224 0 259 2 259 15 0 13 -29 15 -198
15 l-198 0 -45 37 c-24 20 -63 55 -86 77 l-43 40 0 89 0 88 -62 -3 c-61 -3
-63 -4 -66 -31 l-3 -28 -52 42 -52 41 55 -51z"/>
<path d="M2180 1552 c38 -19 49 -47 30 -81 -6 -12 -19 -21 -30 -21 -14 0 -20
9 -23 38 -3 34 -4 33 -5 -10 -2 -55 9 -61 52 -27 28 22 34 56 16 90 -13 23 6
26 34 6 24 -18 18 -76 -9 -91 -11 -6 -22 -12 -24 -13 -2 -2 3 -11 11 -20 9
-10 25 -37 37 -60 21 -43 21 -43 1 -43 -15 0 -28 15 -47 55 -15 30 -30 55 -34
55 -4 0 6 -27 22 -60 l29 -60 202 0 c170 0 199 2 184 13 -17 12 -17 17 -5 50
12 34 16 37 52 37 35 0 38 2 32 23 -4 12 -17 39 -29 60 l-21 39 -14 -34 c-7
-18 -14 -43 -15 -55 0 -13 -5 -23 -10 -23 -4 0 -5 -7 -2 -16 3 -8 2 -13 -3
-10 -14 9 -21 -22 -11 -49 8 -22 7 -25 -11 -25 -19 0 -20 2 -8 18 12 15 11 15
-8 -1 -22 -19 -22 -19 -25 20 l-3 38 -17 -32 c-20 -36 -65 -51 -99 -33 -14 8
-19 9 -15 1 5 -7 -5 -11 -27 -11 -31 0 -35 3 -31 23 l5 22 -10 -22 c-19 -42
-48 -28 -80 35 -29 58 -29 59 -10 75 13 12 19 30 19 57 0 34 -4 42 -26 50 -14
6 -44 10 -67 10 l-42 -1 35 -17z"/>
<path d="M170 1035 c0 -13 78 -15 645 -15 567 0 645 2 645 15 0 13 -78 15
-645 15 -567 0 -645 -2 -645 -15z"/>
<path d="M3570 1035 c0 -13 78 -15 645 -15 567 0 645 2 645 15 0 13 -78 15
-645 15 -567 0 -645 -2 -645 -15z"/>
</g>
</svg>
